<?xml version="1.0" encoding="UTF-8"?>
<svg id="Ebene_1" xmlns="http://www.w3.org/2000/svg" version="1.1" viewBox="0 0 277.1 232.2">
  <!-- Generator: Adobe Illustrator 29.0.1, SVG Export Plug-In . SVG Version: 2.1.0 Build 192)  -->
  <defs>
    <style>
      .st0 {
        fill: #ffd20d;
      }

      .st1 {
        fill: none;
        stroke: #000;
        stroke-miterlimit: 10;
        stroke-width: 2px;
      }
    </style>
  </defs>
  <g>
    <g>
      <path class="st0" d="M143.1,83.6c.1.7-3.4,12.1-5,12-1.1-.2-4.6-10.2-4.6-11.6,0-1.9,3.4-6.9,5.5-6.7,1.5.2,3.8,4.3,4.1,6.3Z"/>
      <path d="M139.1,77.3c-2.1-.1-5.6,4.8-5.5,6.7,0,1.4,3.5,11.4,4.6,11.6,1.6.2,5.1-11.2,5-12-.3-2-2.5-6.1-4.1-6.3ZM177.7,66.1c.3,4.1-.4,10.1-4.4,12-3.5.3-.4-9.5-.9-11.8-.1-7.1-6.5-14.4-13.5-15.5-9.3-1.2-18.7,8-17.6,17.6,0,4.9,3.2,8.8,5.5,12.8,2.4,4.3-1,8.5-2.8,12.4-1.5,3.3-2.4,8.3-4.3,10.2-4.9,4.3-5.8-7.2-7.8-10.5-1.9-3.8-4.7-8-2.4-12.1,1.6-3.5,4.9-6.7,5.9-10.4,1.7-6.3-2.3-12.8-7.4-17-3.1-2.5-7.2-3.9-11.2-2.9-4.9,1.3-9.8,5.2-11.4,10.1-1.6,4.6,0,9.8-.4,14.5-.2,2-1.4,3.1-3.2,1.3-3.1-3.4-3.4-9.2-2.5-13.6,1.7-8.4,8-14.2,15.8-16.4h.2c3.6-1.1,7.6-1.2,11.1.4,4.5,1.7,7.7,6.3,12,6.9,2.6.2,5-2.6,7.2-4.2,5.5-4.5,13-4.8,19.2-1.8,7.2,2.9,12.3,9.7,12.9,18Z"/>
      <path d="M270.4,181.1c5.2,8.6,7.4,10.7,6.3,21.4-.4,3.3-1.7,6.1-3.5,8.8-2.6,3.9-6.1,9.7-9.4,13.4-1.5,1.7-2.9,3.4-4.6,4.8-1.9,1.8-3.6,1.9-6.1,2.1-2.2,0-4.4,0-6.6,0v-1.8c4.9.2,8.8-1.2,13-6.3,6-7.4,16.9-20.6,12.2-30.5-2.7-5.8-6.9-11.4-9.3-17.2-7.9-19.2-15.5-38.1-22.9-57.5-1.9-4.5-4-8.9-4.8-13.8-1.1-6.4-1-13.7-2.8-20.1-1-3.8-2.8-7.2-4.7-10.7-3-5.4-6.5-12.4-9.6-17.8-1.2-2.2-8.6-13.1-1.2-10.2,1.8.8,3.5,2.1,5.4,2.8,3.3,1.3,6.1.4,9.3,1.3,1.4.2,4.2,1.7,4.5-.2,0-3.5-4.1-8.4-5.3-12.3-1.4-3.9-.1-8.4-2.4-12-3.4-4.8-11.8-5.8-12.3-13.1-.4-2.2-1-3.8-2.5-4.1-1.6-.3-3.2.6-4.7,1.3-2.7,1.4-5.9,3-9.6,5.2-7,4.1-12.4,8.2-18.5,13.7-7.9,7.6-12.5,6.3-22.3,3.7-8.2-1.7-17-3.9-25.3-2.6-4.5.6-9.9,1.7-14.6,2.7-4.4.8-8.4,2.6-12.8,1.8-6.6-1.5-10.9-7.5-16.4-11.4-8.1-6.3-15.4-11.8-24.7-14.4h-.1c-4.2-.2-2.9,5.6-5.5,8.7-3.1,4.7-11.8,5.6-11.8,12.1,1.1,8.7-4.1,13.1-6.1,20.6-.5,2,.8,2,2.1,1.4,2-.9,4.3-1.6,6.5-1.6,2.9,0,5-.2,7.9-1.9,1.7-.8,3.2-1.9,5-1.9,4.3.8-2.6,8.4-3.8,10.9-4.1,6.7-9.5,17.8-12.7,24.5-4.8,10-1.7,22.3-6.8,32.5-4,9.4-7.9,18.7-11.3,28.3-4,10.2-8.3,20.4-12.2,30.5-2.1,5.5-5.1,11-8.4,15.9-2.2,3.4-4.2,7.4-3.8,11.5H.9c0,0,0,0,0,0-.6-6.7,1.7-13,4.8-18.8,2.4-4.8,3.9-8.9,6-14,5.5-13.3,10.5-26.2,15.7-39.6,2-4.9,4.2-9.9,6-14.8,3.7-9.3,2.9-19.9,5.6-29.2,1-3.1,2.5-6,4-8.9,1.9-3.9,6.1-8.4,5.4-13-.3-2.3-2.4-3.5-4.6-3.3-7,.7-8,1.2-8.4-6-.1-4.1-.3-8.6.2-12.2,1-5.3,3.1-11.1,6.1-15.6,3.5-5.4,13.8-7.2,13.1-15,0-1.5-.4-3-.4-4.5v-.2c.6-6.8,8.5-2.6,12.1-.6,4.2,2.2,9.3,3.9,13.5,6.3,7.5,4,13.9,10.1,20.6,15.8,4.8,4.3,10.9,2.8,16.5,1.1,4.9-1.4,8.9-2.1,14.3-2.4,4.8-.2,9.8-.2,14.6,0,6.8.2,12,2.4,18.3,4,5.4,1.5,9.5-1.2,13.3-4.9,8.2-7.7,17.4-13.5,26.9-17.8,4.3-2,8.8-6.1,13.9-5,5.8,2.3-.4,10.3,4.1,14.1,2.7,2.8,6.7,4.3,9.4,7.1,1.5,1.4,2.8,3.3,3.7,5.1,4,7.8,5.1,15.3,4.9,24,.3,13.5-9.8,2.1-13.4,9.4-1.1,4.5,2.6,7.9,5.1,13,1.6,3.1,3.2,6.3,4.3,9.6,3.1,10.3,2.2,22.6,6.9,32.3,5.5,12.9,10.3,26.6,15.9,39.4,3.2,8.1,6.9,17.9,10.8,26Z"/>
      <path class="st0" d="M271.7,193c4.7,9.9-6.2,23.1-12.2,30.5-4.1,5-8.1,6.5-12.9,6.3-2.2-.1-4.6-.6-7.3-1.2-5.8-1.1-12-1.2-17.8-2.2-7.9-1.2-9.4-6.4-8.8-13.5.2-3.9.1-8-.7-11.8-1.2-8.4-7.6-14.7-14.2-20-3.3-3.2-8.6-5.7-9.7-10-.4-2.2.8-4.6,1.8-6.7,3-5.8,5.8-11.7,8.2-17.9,1.9-4.6,3.1-9.7,4.4-14.5,2.6-8.6,3.6-15.5,3.8-24.7.2-11.5.6-24.2-2-35.3-1.5-6-5.4-11.8-5.8-18.1-1.2-6.2,6.8-23.7,3-27.4-4.1-2.7-15.3,3.8-20,6.2-4.1,2.1-7.8,5.8-12.3,6.9-3.6.7-7.1-1.2-10.4-2.4-2.8-1.1-5.6-1.9-8.5-2.5-8.5-1.3-18.2-1.9-26.6.3-3.5.9-7,2.4-10.3,3.7-2.5.9-5,1.8-7.5,1.1-1.6-.5-3.1-1.6-4.5-2.6-3-2.2-7.7-5-11.9-7.1-4.5-1.8-15.4-8.6-15.7-1.1,0,7.7,3.2,15.8,4.2,22.6.4,5.3-2.9,10.9-4.6,15.6-6.4,15.5-5.1,47.8-.3,63.4,1.3,4.7,3.5,12.1,5.8,17.8,1.8,4.7,3.8,8.6,6,13.1,1.3,2.8,3.4,6,3.1,9.2-.2,1.8-1.6,3.5-3.5,5.1-2.4,2.1-5,4.1-7.4,6.2-9.8,7.9-13.6,14.8-13.6,27.3.9,15.1-2.5,17-17.3,18.2-4.2.4-8.1.9-12,1.6-4.9,1.2-10.2,1.4-14.2-2.1-5.2-4.3-8.2-9.7-12.1-15.3-2.5-3.7-4.7-7.6-5-11.8-.4-4.2,1.6-8.1,3.8-11.5,3.3-4.9,6.3-10.5,8.4-15.9,3.9-10.1,8.2-20.2,12.2-30.5,3.4-9.7,7.3-18.9,11.3-28.3,5.1-10.2,2-22.4,6.8-32.5,3.2-6.7,8.7-17.8,12.7-24.5,1.2-2.6,8.1-10.1,3.8-10.9-1.9,0-3.4,1.1-5,1.9-2.9,1.6-5,1.9-7.9,1.9-2.2,0-4.5.7-6.5,1.6-1.3.6-2.5.6-2.1-1.4,2-7.4,7.2-11.9,6.1-20.6,0-6.5,8.7-7.5,11.8-12.1,2.6-3.1,1.3-9,5.5-8.8h.1c9.3,2.6,16.7,8.1,24.7,14.4,5.6,4,9.8,9.9,16.4,11.4,4.4.8,8.4-1.1,12.8-1.8,4.8-1,10.1-2.1,14.6-2.7,8.4-1.3,17.1.9,25.3,2.6,9.8,2.6,14.4,3.8,22.3-3.7,6.1-5.5,11.5-9.7,18.5-13.7,3.7-2.2,6.9-3.8,9.6-5.2,1.5-.7,3.1-1.5,4.7-1.3,1.5.3,2.1,1.9,2.5,4.1.5,7.3,8.9,8.4,12.3,13.1,2.3,3.6,1,8.1,2.4,12,1.1,3.9,5.4,8.8,5.3,12.3-.3,1.9-3.1.4-4.5.2-3.2-.9-6.1,0-9.3-1.3-1.8-.7-3.6-2-5.4-2.8-7.4-2.9,0,8,1.2,10.2,3.2,5.4,6.6,12.4,9.6,17.8,1.9,3.5,3.7,6.9,4.7,10.7,1.8,6.4,1.7,13.7,2.8,20.1.8,4.9,2.9,9.3,4.8,13.8,7.4,19.3,15.1,38.3,22.9,57.5,2.4,5.9,6.6,11.4,9.3,17.2Z"/>
      <path d="M246.5,229.7v1.8c-.9,0-1.6,0-2.5-.1-5.9-.3-12.2-.7-19.1-1.3-5.6-.7-12.2-.8-16.4-5-5.5-8.2,2.5-23.9-7.1-33.5-3.7-4.2-8.8-8.4-13.3-11.8-2-1.5-4.2-3-5.8-4.9-3.8-4.4-1.2-7.5,1.4-11.9,6.1-12,13.9-32.2,16.1-47.9,1.1-11.8,1.6-25.7-.4-37.2-4.1-19.8-12-16.8-3.9-39.4,2.4-8.4-3.6-5.9-8.6-3.3s-5.6,3.1-8.3,4.9c-3.5,2.3-6.6,5.1-10.6,5.2-3.9.2-7.2-2.2-10.8-3.4-9.1-3.1-19.8-4.3-29.7-2.3-4.9.8-10.6,2.5-14.7,4.5-3.6,1.7-7.3,1.6-10.7-.5-3.2-1.4-23.6-17-22.7-8.6,1,7.5,6,15.5,3.8,22.7-.6,2.4-1.7,4.6-2.7,6.8-2.1,4.6-3.6,10.3-4.6,15.4-1.7,11-1.4,23.5,0,35.2,2.1,11.4,4.5,22.5,9.2,32.8,2.2,4.8,5.4,11.4,7.6,15.6,1.3,2.5,3,5.4,2.7,7.6-1.3,6.6-10.6,9.8-15,14.5-4.4,4.2-9.2,8.7-10.7,14.3-2.5,12.5,5.5,28-13.2,29.9-4.8.5-9.9.7-14.9,1-8.6,0-18.4,3-25.8-2.8-8.2-6.8-14.2-17.2-14.8-28.2h2c.3,4.1,2.5,8,5,11.7,3.9,5.6,7,11,12.1,15.3,4,3.5,9.4,3.3,14.2,2.1,3.9-.7,7.8-1.2,12-1.6,14.8-1.3,18.2-3.1,17.3-18.2,0-12.5,3.8-19.4,13.6-27.3,2.4-2.1,5-4.1,7.4-6.2,1.9-1.6,3.3-3.2,3.5-5.1.3-3.1-1.8-6.3-3.1-9.2-2.2-4.5-4.2-8.4-6-13.1-2.3-5.8-4.5-13.1-5.8-17.8-4.8-15.6-6.1-48,.3-63.4,1.7-4.8,5-10.3,4.6-15.6-1.1-6.7-4.2-14.9-4.2-22.6.4-7.6,11.3-.8,15.7,1.1,4.2,2.1,8.9,5,11.9,7.1,1.4,1,2.9,2.1,4.5,2.6,2.5.7,5-.2,7.5-1.1,3.4-1.3,6.8-2.8,10.3-3.7,8.4-2.2,18-1.6,26.6-.3,2.9.5,5.8,1.3,8.5,2.5,3.3,1.3,6.8,3.2,10.4,2.4,4.5-1.1,8.2-4.9,12.3-6.9,4.7-2.4,15.8-8.9,20-6.2,3.7,3.7-4.2,21.2-3,27.4.4,6.3,4.3,12.2,5.8,18.1,2.6,11.1,2.2,23.8,2,35.3-.2,9.2-1.2,16.1-3.8,24.7-1.3,4.8-2.5,9.9-4.4,14.5-2.4,6.2-5.2,12.1-8.2,17.9-1,2.1-2.2,4.5-1.8,6.7,1,4.3,6.4,6.8,9.7,10,6.6,5.4,13,11.6,14.2,20,.8,3.8.9,7.9.7,11.8-.6,7.1.9,12.2,8.8,13.5,5.8,1,12,1.1,17.8,2.2,2.7.7,5.1,1.1,7.3,1.2Z"/>
      <path class="st0" d="M164.6,63c2.7,5.1-1.5,12.6-7,12.9-7.5,0-11.2-10-6.1-15.2v-.2c3.8-4.2,10.9-2.3,13.1,2.5Z"/>
      <path class="st0" d="M127.8,63.7c3.6,6.2-5.5,14.9-11.5,11.5-5.2-3.1-7.5-8.8-2.8-13.6v-.2c4.9-5.7,11.1-3.4,14.3,2.2Z"/>
    </g>
    <g>
      <path class="st1" d="M113.6,61.6c-4.7,4.8-2.4,10.5,2.8,13.6,6,3.4,15.1-5.3,11.5-11.5-3.2-5.6-9.4-7.9-14.1-2.2v.2Z"/>
      <path class="st1" d="M151.6,60.6c-5.1,5.3-1.4,15.2,6.1,15.2,5.5-.3,9.7-7.8,7-12.9-2.2-4.8-9.2-6.8-12.9-2.5v.2Z"/>
    </g>
  </g>
  <circle cx="119.7" cy="67.3" r="3.1"/>
  <circle cx="157.3" cy="67.3" r="3.1"/>
</svg>