<svg xmlns="http://www.w3.org/2000/svg" width="340" height="65" fill="none"><path fill="#000" d="M50.95 46.076q.273.727.273 1.393 0 .15-.03.333-.061.696-.515 1.241-1.09 1.453-7.871 1.877-2.029.151-2.604.212-6.327 1.211-14.622 5.782l-.363.212q-7.206 3.936-11.353 3.936h-.454l-.424-.03q-6.508-.758-8.174-12.473-.423-3.118-.423-7.206 0-1.3.03-2.694.09-2.785.333-5.994-2.452-.423-3.421-1.937a2.65 2.65 0 0 1-.394-1.847q.06-.575.333-1.241.394-1 1.817-2.816.666-.878.878-1.241 1.089-1.756 1.665-6.236.272-2.18.515-3.27-.576 0-1.06-.06-3.3-.395-4.238-2.24a2.7 2.7 0 0 1-.303-1.272q0-.212.03-.454.12-1.06.848-2.301 1.362-2.331 6.176-3.814 2.694-.849 3.784-1.544Q14.048.636 15.803.636q.18 0 .363.03 1.695.181 4.117 2.422.696.666 2.18.817.514.06 1.12.06 2.513 0 6.63-.998 4.299-1 6.267-1 .363 0 .635.031l.212.03q2.937.333 3.482 2.422.09.333.09.696 0 .213-.03.424a3.7 3.7 0 0 1-.484 1.514q-.757 1.423-2.24 2.452-3.543 2.483-10.657 2.483-.635 0-1.302-.03a57 57 0 0 1-2.058-.182 33 33 0 0 0-3.24-.182q-4.086 0-4.964 1.544-.909 1.756-1.362 5.661-.122.878-.212 1.907 0 .455-.06.909 9.717-1.333 17.951-1.363.212 0 .969-.03.907-.03 1.665-.03 1.242 0 2.028.09 2.544.303 3.452 1.544.514.697.514 1.454v.212q-.03.302-.181.575-.516 1.514-2.816 2.967-1.876 1.18-3.33 1.543-3.33.848-10.081.848h-.454l-1.272-.03q-.484 0-1.544-.06-1.09-.061-1.937-.061-1.18 0-1.907.12-2.059.334-2.846 1.666-1.211 2.12-1.756 6.811l-.06.575q-.152 1.695-.152 3.18 0 3.42.878 5.57.847 1.937 2.362 2.3.333.06.666.091.453.06.968.06 3.543 0 10.354-2.572a67 67 0 0 1 2.845-1.06Q38.6 43.29 44.351 43.29q1.301 0 2.482.151 1.029.122 1.938.333 1.482.334 2.18 2.301M74.866 53.1q1.998 5.6 1.998 8.173 0 3.15-2.694 3.149-1.847 0-3.542-1.423-2.361-1.968-3.693-8.689-.395-1.998-.606-2.845-2.21 3.996-6.085 7.114-4.147 3.33-7.508 3.33-2.724 0-4.238-2.33-1.605-2.514-1.604-7.509 0-5.207 1.967-12.26 2.483-9.053 6.116-9.173h.03q1.332 0 2.058.878.727.907.727 3.3 0 3.541-1.544 10.292-1.18 5.207-1.18 6.812 0 .575.15.696.153 0 .425-.151 4.147-2.543 6.145-7.417 1.15-2.815 2.028-8.265.546-3.42 1.03-4.601.787-1.878 2.391-1.877 3.15 0 4.42 4.36.757 2.542 1.09 8.445.181 3.12.363 4.178.333 1.847 1.756 5.813m17.559.242q.333 1.785.333 3.24 0 2.905-1.302 4.45-.817.968-2.059.968-1.241 0-2.845-1.03-3.452-2.178-4.208-17.104-.122-2.392-.212-3.148-.424-4.995-.424-10.172v-1.847q0-11.686 1.15-22.886l.03-.243.213-.12q2.149-1.333 4.298-1.333 1.15 0 1.908.818 1.815 1.998 1.816 9.96 0 4.116-.484 9.808-.152 1.847-.182 2.27a88 88 0 0 0-.121 4.633q0 10.383 2.089 21.736m14.319-7.236q1.938 0 3.179-1.362 1.15-1.241 1.332-3.088.03-.302.03-.605 0-1.453-.726-2.574-.97-1.514-2.846-1.755a4 4 0 0 0-.454-.03q-1.212 0-1.877.998-.696 1.03-.696 2.846 0 4.057 2.058 5.57m24.098-2.512q2.21-1.635 3.33-1.635t1.12 1.695q-.727 5.116-5.722 10.747-4.874 5.45-9.899 7.205a17 17 0 0 1-3.603.394q-8.87 0-16.347-10.05-2.543-3.422-2.543-9.385 0-2.514.454-5.51.818-5.389 8.597-7.115a9.4 9.4 0 0 1 2.089-.242q2.815 0 5.268 1.817 2.785 2.058 4.753 6.145.515 1.847.515 3.451 0 4.753-4.451 7.66-.726.483-1.937.908-1.362.484-1.635.605-.636.333-.636.848v.06q.061.637 1.06 1.726 2.119 2.3 4.874 2.3.787 0 1.635-.18 3.541-.788 7.084-4.966 4.752-5.54 5.994-6.478m32.846 10.02q.818 3.089.818 4.995 0 1.545-.545 2.27Q163.083 62 161.146 62q-.757 0-1.696-.182-2.573-.453-4.087-6.206-.907-3.39-1.998-11.715-.756-5.692-1.18-7.266-4.542 3.33-6.388 7.447-1.514 3.39-1.574 8.446-.031 2.18-1.665 4.965-1.878 3.21-4.027 3.21-1.846 0-3.3-2.574-.877-1.574-.877-5.207 0-3.3.726-8.295.636-4.359.666-5.964.03-3.178 1.665-4.662 1.15-1.09 2.906-1.09.697 0 1.514.182 1.968.423 2.119 1.362.999-1.06 2.604-3.542 1.484-2.301 2.391-3.36.697-.787 2.241-1.756 2.088-1.271 3.693-1.271 1.938 0 2.815 1.846 2.513 5.783 4.299 18.104.666 4.389 1.06 6.6.12.726.635 2.542m35.027-24.31q5.872.939 9.718 12.504.968 2.906 2.694 9.536 1.483 5.721 2.331 7.84 0 2.604-2.18 2.604-.665 0-1.544-.242-3.36-.939-4.783-2.937-1.574-2.21-2.906-7.326-1.424-5.358-2.694-7.417 0 .03-1.302 4.602-1.029 3.602-1.968 5.964-2.906 7.416-6.448 7.568h-.061q-2.815 0-4.389-9.566-1.09-6.57-1.09-6.66-.606-3.058-1.423-3.058 0 .242-4.541 12.836-1.453 4.086-3.179 5.388-.937.697-1.998.697-1.484 0-3.239-1.332h.03q.152 0 .152-2.907 0-4.026-.303-13.592v-.091q0-1.302.726-2.664.787-1.453.787-2.725 0-1.635 2.18-1.786 2.664-.15 2.725-.182.787-.757 2.149-2.452 1.332-1.635 2.029-2.27 1.301-1.15 2.785-1.15 1.24 0 2.633.817 1.938 1.15 3.512 7.235 1.967 7.599 2.15 7.992.393-.817 2.966-9.778 1.787-6.206 4.481-7.447M244.791 53.1q1.998 5.6 1.998 8.173 0 3.15-2.694 3.149-1.847 0-3.542-1.423-2.362-1.968-3.694-8.689a66 66 0 0 0-.605-2.845q-2.21 3.996-6.085 7.114-4.148 3.33-7.508 3.33-2.724 0-4.238-2.33-1.605-2.514-1.605-7.509 0-5.207 1.968-12.26 2.482-9.053 6.115-9.173h.031q1.332 0 2.058.878.727.907.727 3.3 0 3.541-1.544 10.292-1.18 5.207-1.181 6.812 0 .575.152.696.15 0 .423-.151 4.148-2.543 6.146-7.417 1.15-2.815 2.028-8.265.545-3.42 1.03-4.601.786-1.878 2.391-1.877 3.148 0 4.42 4.36.757 2.542 1.09 8.445.181 3.12.363 4.178.333 1.847 1.756 5.813m-17.407-37.388q-.182 2.755-1.847 4.36-1.393 1.3-3.148 1.301h-.303q-1.968-.15-3.179-1.756-1.09-1.484-1.09-3.633 0-.333.031-.666.06-.848.242-1.725.454-1.695 1.998-2.543a4.56 4.56 0 0 1 2.301-.606q.363 0 .696.03 1.756.213 2.936 1.484 1.333 1.453 1.363 3.754m15.984 0q-.181 2.755-1.847 4.36-1.392 1.3-3.148 1.301h-.303q-1.968-.15-3.178-1.756-1.09-1.484-1.09-3.633 0-.333.03-.666.06-.848.242-1.725.454-1.695 1.998-2.543a4.7 4.7 0 0 1 2.331-.606q.333 0 .666.03 1.756.213 2.937 1.484 1.332 1.453 1.362 3.754m38.599 42.383v.242q-.212 3.36-3.179 3.36-3.36 0-6.63-2.906-2.997-3.48-4.662-12.594a80 80 0 0 1-.303-1.665q-.726 1.362-2.361 5.6-2.21 5.753-3.481 8.023Q259.171 62 257.052 62q-2.21 0-3.754-1.695-2.301-2.544-2.301-6.358 0-.605.061-1.24.363-3.997.363-12.08.03-2.845.03-4.51.121-8.78.939-16.348 1.543-13.987 4.783-13.987.575 0 1.12.394 2.18.999 2.24 6.811v.212q0 3.995-1.09 12.14-.393 2.998-.423 3.784-.364 6.085-.364 11.11 0 2.241.061 4.239 1.725-1.755 3.33-6.54 1.12-3.45 2.058-4.964 1.545-2.574 4.239-3.694a2.9 2.9 0 0 1 1.18-.272q2.634 0 4.269 5.086 1.18 3.694 2.089 11.11l.181 1.453q2.06 8.084 5.722 11.292zm14.38-4.753q.333 1.785.333 3.24 0 2.905-1.302 4.45-.817.968-2.059.968-1.241 0-2.845-1.03-3.452-2.178-4.208-17.104-.122-2.392-.212-3.148-.424-4.995-.424-10.172v-1.847q0-11.686 1.15-22.886l.031-.243.211-.12q2.15-1.333 4.299-1.333 1.15 0 1.908.818 1.815 1.998 1.816 9.96 0 4.116-.484 9.808a315 315 0 0 0-.182 2.27 88 88 0 0 0-.121 4.633q0 10.383 2.089 21.736m14.319-7.236q1.937 0 3.179-1.362 1.15-1.241 1.332-3.088.03-.302.03-.605 0-1.453-.727-2.574-.968-1.514-2.845-1.755a4 4 0 0 0-.454-.03q-1.212 0-1.877.998-.697 1.03-.697 2.846 0 4.057 2.059 5.57m24.098-2.512q2.21-1.635 3.33-1.635t1.12 1.695q-.727 5.116-5.722 10.747-4.874 5.45-9.899 7.205a17 17 0 0 1-3.603.394q-8.87 0-16.347-10.05-2.543-3.422-2.543-9.385 0-2.514.454-5.51.818-5.389 8.597-7.115a9.4 9.4 0 0 1 2.089-.242q2.815 0 5.268 1.817 2.785 2.058 4.753 6.145.514 1.847.514 3.451 0 4.753-4.45 7.66-.726.483-1.937.908-1.363.484-1.635.605-.636.333-.636.848v.06q.061.637 1.06 1.726 2.119 2.3 4.874 2.3.787 0 1.635-.18 3.541-.788 7.084-4.966 4.752-5.54 5.994-6.478"/></svg>