<?xml version="1.0" standalone="no"?>
<!DOCTYPE svg PUBLIC "-//W3C//DTD SVG 20010904//EN"
 "http://www.w3.org/TR/2001/REC-SVG-20010904/DTD/svg10.dtd">
<svg version="1.0" xmlns="http://www.w3.org/2000/svg"
 width="630.000000pt" height="339.000000pt" viewBox="0 0 630.000000 339.000000"
 preserveAspectRatio="xMidYMid meet">
<metadata>
Created by potrace 1.10, written by Peter Selinger 2001-2011
</metadata>
<g transform="translate(0.000000,339.000000) scale(0.100000,-0.100000)"
fill="#000000" stroke="none">
<path d="M4186 3245 c-11 -8 -28 -15 -37 -15 -10 0 -30 -7 -46 -14 -15 -8 -35
-17 -43 -20 -29 -11 -146 -99 -205 -155 -66 -62 -91 -93 -162 -194 -27 -38
-62 -88 -79 -110 l-30 -42 -70 -1 c-46 -1 -78 4 -96 15 -31 17 -33 23 -16 50
6 10 8 26 4 36 -6 17 -8 16 -31 -5 -13 -12 -25 -32 -27 -44 -5 -37 -33 -25
-33 14 0 19 -9 47 -18 62 -15 22 -24 26 -50 21 -25 -4 -37 1 -56 21 -14 14
-29 26 -34 26 -11 0 -46 -41 -47 -56 0 -6 -11 -21 -24 -33 l-24 -22 -16 32
c-9 18 -16 37 -16 43 0 6 -9 28 -20 49 -11 20 -20 43 -20 50 0 16 -32 47 -47
47 -6 0 -21 -21 -33 -47 -12 -27 -25 -55 -29 -63 -10 -18 -115 -34 -140 -21
-9 5 -25 30 -36 55 -15 35 -25 46 -42 46 -16 0 -24 -7 -27 -22 -2 -13 -9 -45
-15 -73 -6 -27 -13 -75 -15 -105 -1 -30 -10 -68 -18 -85 -9 -16 -19 -46 -23
-65 -4 -19 -11 -41 -15 -50 -8 -18 -37 -83 -55 -125 -22 -52 -64 -138 -100
-204 -65 -118 -41 -221 57 -249 40 -11 55 -11 102 3 30 9 71 27 91 41 20 13
40 24 45 24 6 0 10 4 10 8 0 5 11 14 25 20 14 6 25 17 25 24 0 17 38 87 58
107 8 9 49 33 90 53 63 31 78 35 98 26 13 -6 24 -15 24 -20 0 -4 6 -8 13 -8
30 0 65 -45 72 -91 l7 -46 -45 -22 c-24 -12 -65 -42 -89 -67 -55 -56 -78 -53
-78 11 0 26 -6 50 -16 59 -31 32 -45 16 -68 -73 -8 -36 -19 -67 -23 -70 -5 -3
-19 -23 -33 -44 -22 -34 -28 -37 -55 -32 -16 3 -64 12 -105 20 -41 7 -91 16
-110 20 -19 4 -86 0 -148 -9 -62 -9 -138 -16 -170 -16 -31 -1 -68 -7 -82 -15
-32 -18 -90 -20 -90 -2 0 7 9 20 20 30 24 20 26 36 4 44 -16 6 -28 -5 -84 -77
-39 -51 -60 -69 -77 -70 -21 0 -15 15 17 46 30 29 38 58 20 69 -9 6 -68 -30
-82 -50 -5 -6 -11 -6 -18 1 -8 8 -7 14 5 24 35 29 -1 99 -44 87 -14 -3 -22 1
-26 14 -7 21 -39 34 -77 30 -21 -2 -30 3 -39 23 -9 18 -20 26 -38 26 -21 0
-29 -8 -45 -46 -15 -36 -23 -44 -40 -42 -17 2 -21 10 -21 43 0 33 -4 41 -21
43 -33 5 -64 -47 -83 -140 -10 -47 -44 -92 -146 -193 -87 -87 -139 -160 -174
-244 -26 -61 -24 -105 6 -145 15 -21 27 -25 66 -26 41 0 60 8 140 59 51 33 99
67 108 75 9 9 21 16 27 16 5 0 12 3 14 8 2 4 18 17 36 30 24 17 44 22 75 20
41 -3 42 -4 60 -58 17 -53 39 -144 39 -165 0 -5 -5 -44 -12 -85 -6 -41 -15
-103 -20 -138 -4 -34 -15 -74 -24 -87 -9 -13 -16 -37 -16 -53 0 -16 -7 -35
-15 -42 -8 -7 -15 -20 -16 -29 0 -9 -18 -47 -39 -86 -22 -38 -45 -82 -51 -97
-6 -16 -15 -28 -20 -28 -5 0 -9 -8 -9 -19 0 -10 -7 -24 -15 -31 -8 -7 -15 -18
-15 -25 0 -7 -7 -18 -15 -25 -8 -7 -15 -19 -15 -27 0 -13 -31 -62 -57 -91 -7
-7 -13 -16 -13 -20 0 -4 -18 -27 -40 -52 -47 -53 -56 -76 -40 -95 15 -18 81
-20 101 -3 33 28 139 198 139 224 0 7 3 14 8 16 13 6 52 67 52 83 0 9 6 18 14
21 8 3 16 14 19 25 3 10 10 19 16 19 17 0 13 -30 -4 -36 -8 -4 -15 -16 -15
-28 0 -23 -81 -189 -106 -217 -8 -8 -14 -20 -14 -26 0 -6 -7 -16 -15 -23 -8
-7 -15 -19 -15 -28 0 -8 -8 -24 -17 -34 -26 -28 -4 -41 54 -33 l50 6 45 92
c68 139 108 226 108 235 0 5 27 61 59 125 33 65 62 130 66 147 4 16 11 30 16
30 5 0 9 7 9 16 0 9 6 28 14 42 17 34 35 86 47 137 6 21 15 45 20 52 6 7 8 16
5 22 -3 5 -3 19 2 30 7 20 16 21 161 25 91 3 158 9 164 15 29 29 86 1 87 -42
0 -17 -2 -24 -33 -85 -9 -19 -17 -45 -17 -58 0 -14 -7 -27 -15 -30 -8 -4 -15
-11 -15 -16 0 -6 -6 -24 -14 -41 -7 -18 -21 -52 -31 -77 -9 -25 -24 -61 -32
-80 -8 -19 -22 -51 -30 -70 -8 -19 -21 -48 -29 -63 -8 -16 -14 -37 -14 -47 0
-18 -22 -78 -41 -110 -5 -8 -14 -26 -20 -40 -5 -13 -13 -27 -17 -30 -4 -3 -13
-16 -19 -30 -30 -62 -63 -113 -87 -135 -15 -14 -26 -35 -26 -50 0 -23 3 -25
49 -25 44 0 52 4 85 40 20 22 38 40 40 40 3 0 1 -12 -3 -27 -12 -41 -3 -53 35
-53 43 0 74 30 109 109 14 31 30 64 36 74 6 10 20 37 31 60 12 23 31 55 42 71
24 36 56 97 56 109 0 4 9 29 21 55 11 26 24 56 28 67 5 11 23 50 40 87 17 37
31 71 31 74 0 4 13 35 29 68 30 64 54 134 68 200 11 55 35 67 68 36 21 -20 37
-25 80 -25 29 0 56 -3 59 -6 11 -11 -42 -244 -70 -309 -36 -83 -70 -132 -152
-216 -7 -8 -12 -24 -10 -36 2 -17 14 -25 52 -34 56 -14 86 -5 86 26 0 10 3 26
6 34 5 14 10 13 30 -9 13 -14 32 -25 42 -25 30 0 49 -28 34 -48 -7 -10 -15
-24 -18 -32 -14 -36 -34 -79 -63 -140 -17 -36 -31 -70 -31 -76 0 -6 -13 -29
-30 -52 -43 -60 -47 -87 -16 -107 44 -29 65 -17 104 60 34 68 52 109 78 170
15 36 71 159 90 198 8 16 14 37 14 47 0 9 7 23 15 30 8 7 15 18 15 26 0 18 40
84 51 84 12 0 12 -47 -1 -55 -5 -3 -14 -20 -19 -38 -18 -58 -40 -113 -76 -193
-20 -44 -46 -99 -57 -124 -11 -25 -26 -57 -34 -72 -8 -14 -14 -32 -14 -40 0
-8 -13 -29 -30 -48 -16 -19 -29 -40 -30 -46 0 -7 25 -14 63 -17 74 -6 108 12
118 62 4 18 12 38 18 44 6 6 11 19 11 28 0 10 6 24 13 31 14 16 45 81 91 193
7 17 20 46 28 65 16 36 35 88 62 177 9 28 21 64 27 80 31 75 48 131 49 158 0
17 7 43 15 59 8 15 15 35 15 43 0 28 42 153 53 160 7 4 41 11 77 15 36 4 80
10 98 14 31 6 32 5 32 -24 0 -17 -4 -34 -10 -37 -5 -3 -10 -20 -10 -36 0 -16
-7 -46 -15 -66 -8 -19 -15 -44 -15 -53 0 -10 -7 -31 -15 -47 -8 -15 -24 -48
-35 -73 -29 -62 -67 -130 -86 -151 -9 -10 -14 -28 -12 -41 3 -20 9 -23 56 -26
43 -3 53 0 58 15 3 10 10 25 15 33 5 8 14 25 19 38 11 27 30 21 30 -9 0 -19 4
-20 43 -14 64 11 72 19 91 87 9 35 28 97 42 138 14 41 37 110 51 153 18 55 29
75 36 68 13 -13 11 -362 -3 -410 -5 -19 -12 -68 -16 -110 -3 -42 -12 -98 -19
-126 -7 -27 -16 -76 -20 -107 -3 -32 -11 -60 -16 -63 -5 -4 -9 -16 -9 -28 0
-29 -33 -124 -49 -140 -14 -14 -14 -40 1 -55 17 -17 78 -16 78 2 0 8 5 27 12
43 19 45 38 141 47 238 5 50 14 110 19 135 6 25 16 70 22 100 6 30 18 84 26
120 8 36 19 84 24 108 5 24 12 47 15 53 9 13 37 118 45 169 11 60 35 122 46
118 13 -4 14 -169 2 -263 -6 -44 -12 -111 -15 -149 -3 -38 -11 -79 -18 -90 -7
-12 -15 -52 -18 -91 -4 -38 -10 -83 -16 -100 -35 -112 -41 -135 -41 -152 0
-31 -37 -164 -49 -176 -6 -6 -11 -23 -11 -37 0 -14 -7 -35 -15 -46 -8 -10 -15
-34 -15 -51 0 -32 1 -33 44 -33 l45 0 7 45 c3 25 10 48 15 51 5 3 9 20 9 37 0
18 7 54 15 81 8 27 15 65 15 85 0 35 18 103 46 169 8 18 14 40 14 48 0 9 7 32
16 52 9 21 22 52 30 70 8 18 14 42 14 53 0 21 17 66 46 122 8 16 14 34 14 41
0 7 16 35 35 62 41 58 44 74 10 74 -19 0 -31 -13 -62 -67 -21 -37 -40 -79 -43
-93 -3 -14 -12 -26 -21 -28 -15 -3 -16 10 -11 115 2 65 7 135 11 156 l6 38 42
-30 c24 -17 46 -31 50 -31 3 0 15 -8 26 -17 23 -22 129 -20 161 3 11 8 36 14
56 15 19 0 51 10 72 22 123 74 182 114 216 148 22 21 42 36 46 32 11 -12 6
-118 -9 -158 -8 -22 -14 -55 -15 -74 0 -18 -6 -63 -14 -100 -23 -105 -45 -241
-51 -307 -3 -34 -10 -77 -15 -95 -6 -19 -10 -67 -10 -108 l0 -74 31 7 c17 3
35 6 40 6 14 0 46 79 59 145 31 163 49 292 70 515 10 106 40 261 81 425 6 22
14 58 17 80 9 52 37 60 47 13 4 -18 10 -100 14 -183 7 -138 14 -197 42 -359 6
-33 13 -91 16 -130 7 -83 42 -165 95 -218 44 -43 61 -50 93 -38 27 10 34 45
15 78 -5 9 -19 40 -30 67 -11 28 -25 57 -30 66 -5 9 -12 34 -16 55 -3 22 -11
44 -16 50 -5 7 -11 36 -15 65 -3 30 -12 79 -19 109 -17 64 -18 320 -3 395 6
28 14 109 17 180 8 147 17 170 83 204 22 12 44 21 49 21 14 0 140 132 140 147
0 7 9 29 20 50 25 50 30 130 12 217 -20 101 -19 130 8 228 l24 87 -19 58 c-11
32 -29 74 -41 93 -40 66 -64 129 -64 168 0 46 -6 55 -32 41 -29 -15 -50 -40
-72 -83 -19 -37 -77 -73 -97 -60 -15 9 -10 32 8 42 9 6 14 16 10 25 -4 11 -15
14 -44 10 -45 -6 -79 22 -70 57 8 29 -18 37 -53 17 -26 -16 -29 -16 -51 2
l-24 20 23 21 c25 24 29 48 7 56 -9 4 -25 -6 -41 -25 -14 -17 -35 -31 -47 -31
-11 0 -50 20 -86 43 -86 57 -115 71 -182 91 -74 21 -275 22 -303 1z m223 -35
c94 -13 135 -29 204 -79 51 -38 56 -51 31 -72 -9 -8 -27 -30 -40 -50 -12 -20
-34 -49 -48 -64 -14 -15 -28 -37 -32 -49 -3 -11 -12 -28 -19 -36 -17 -21 -26
-63 -16 -79 13 -20 71 -6 120 29 22 17 45 30 50 30 5 0 12 7 15 16 3 8 10 13
15 9 6 -3 -4 -26 -22 -51 l-32 -45 25 -19 c33 -26 52 -25 84 5 46 43 63 34 71
-37 4 -35 14 -76 22 -92 13 -24 14 -53 9 -155 -9 -163 -9 -158 -1 -211 10 -69
35 -121 79 -166 84 -85 81 -76 43 -126 -41 -53 -147 -207 -147 -213 0 -3 -29
-64 -64 -137 -82 -172 -172 -279 -309 -368 -50 -33 -101 -60 -113 -60 -21 0
-22 4 -21 78 0 55 -5 87 -17 111 -22 42 -24 129 -4 179 21 50 39 125 48 193
10 75 29 127 62 170 16 21 38 68 50 107 l22 69 51 -1 c48 -1 50 0 53 27 2 19
9 27 23 27 22 0 89 47 89 62 0 19 -75 79 -107 86 -44 9 -42 22 7 48 51 27 147
101 165 127 19 27 6 49 -47 77 -51 27 -137 29 -239 6 -141 -31 -539 -28 -649
6 -61 19 -114 41 -142 61 -39 26 -38 76 2 127 17 21 30 41 30 45 0 12 94 129
160 199 60 63 212 176 237 176 6 0 24 6 40 14 52 26 118 43 148 40 17 -2 68
-8 114 -14z m389 -190 c3 -15 -87 -90 -108 -90 -17 0 -12 9 32 61 41 49 70 59
76 29z m122 -60 c8 -15 7 -21 -7 -28 -24 -12 -43 -4 -43 17 0 35 33 43 50 11z
m290 -24 c0 -15 29 -80 65 -145 20 -36 25 -58 25 -115 -1 -47 -6 -78 -15 -90
-17 -22 -21 -139 -6 -178 13 -35 22 -161 13 -175 -6 -10 -15 -10 -41 0 -29 11
-34 10 -47 -7 -19 -26 -18 -30 11 -57 13 -13 25 -31 25 -40 0 -25 -88 -118
-128 -134 -45 -20 -55 -19 -47 4 4 13 -11 33 -57 75 -34 32 -69 69 -78 84 -40
67 -56 201 -31 265 15 39 14 110 -3 171 -27 97 -46 184 -46 211 0 26 1 27 43
21 34 -5 47 -3 64 13 15 14 45 22 114 30 94 11 109 18 109 57 0 11 3 24 6 27
9 9 24 -2 24 -17z m-2233 -73 c9 -21 25 -56 35 -79 24 -54 23 -59 -17 -120
-41 -61 -46 -97 -14 -92 12 2 26 11 30 21 5 9 14 25 19 35 6 9 14 27 20 40 5
12 14 22 19 22 21 0 22 -23 2 -61 -26 -50 -27 -85 -2 -99 11 -5 22 -10 24 -10
6 0 77 116 77 127 1 10 50 47 50 36 0 -4 -7 -28 -16 -52 -29 -85 5 -98 43 -15
13 30 30 53 36 51 16 -6 11 -56 -8 -77 -16 -17 -21 -70 -7 -70 15 0 48 44 71
93 l23 47 66 0 c50 0 75 -5 97 -20 17 -11 39 -20 51 -20 11 0 34 -11 52 -23
17 -13 51 -32 74 -41 24 -10 58 -24 76 -32 18 -8 54 -14 80 -14 26 -1 76 -7
112 -15 75 -17 240 -18 355 -4 44 6 109 13 145 16 36 3 69 9 75 14 12 12 51
12 73 0 9 -5 25 -12 35 -15 46 -14 -12 -79 -120 -132 -23 -11 -48 -26 -55 -32
-8 -6 -47 -12 -88 -14 l-75 -3 -3 -32 c-3 -29 -7 -33 -32 -33 -16 0 -41 -5
-55 -12 -19 -8 -31 -8 -51 1 -22 10 -30 9 -45 -5 -18 -16 -18 -19 -3 -35 8 -9
26 -20 40 -23 33 -9 30 -20 -13 -46 -31 -18 -43 -20 -68 -12 -16 6 -52 13 -80
17 -27 4 -66 14 -85 22 -48 20 -230 19 -290 -2 -59 -21 -128 -54 -136 -66 -8
-14 -40 -11 -54 6 -16 19 -43 19 -79 0 -26 -13 -30 -13 -41 0 -7 8 -22 15 -35
15 -12 0 -25 3 -29 7 -4 5 -26 12 -48 18 -37 9 -42 14 -54 55 -8 25 -13 52
-13 60 3 32 -2 38 -36 43 -49 8 -115 56 -115 84 0 23 -33 48 -50 38 -6 -3 -10
-20 -10 -37 0 -37 -50 -88 -87 -88 -29 0 -69 -40 -108 -108 -15 -26 -37 -57
-48 -70 -27 -29 -160 -92 -195 -92 -42 0 -72 26 -72 61 0 28 2 30 28 25 16 -4
35 -1 46 7 15 11 17 17 7 35 -6 12 -25 25 -41 29 l-30 8 39 80 c61 126 161
368 161 390 1 11 7 29 15 39 10 13 15 43 15 87 0 76 12 94 34 51 16 -31 41
-46 58 -36 5 3 46 7 91 8 l82 1 3 30 c6 67 24 73 49 18z m1833 17 c0 -20 -97
-103 -105 -90 -3 6 1 13 9 16 9 3 16 11 16 16 0 14 56 68 70 68 5 0 10 -4 10
-10z m-256 -646 c27 -10 7 -24 -34 -24 -44 0 -70 8 -70 21 0 10 80 12 104 3z
m-69 -104 c0 -11 -10 -14 -40 -11 -47 4 -58 9 -49 22 10 16 89 6 89 -11z
m-600 -5 c71 -21 83 -36 59 -72 -25 -38 -42 -65 -50 -83 -4 -8 -12 -22 -19
-30 -17 -22 -43 -116 -51 -185 -3 -33 -10 -64 -14 -70 -4 -5 -14 -33 -23 -60
-18 -58 -85 -165 -103 -165 -7 0 -41 -19 -76 -42 -74 -50 -90 -60 -143 -86
-54 -26 -189 -56 -220 -48 -13 3 -33 1 -43 -5 -16 -10 -23 -8 -41 10 -23 23
-85 29 -98 9 -4 -7 -11 -33 -15 -58 -13 -82 -36 -184 -48 -220 -30 -83 -45
-119 -77 -185 -41 -82 -55 -108 -70 -126 -6 -8 -13 -25 -15 -38 -1 -14 -9 -26
-15 -29 -18 -5 -16 56 2 88 8 14 14 35 15 47 0 12 6 34 14 50 18 37 36 89 46
133 4 19 19 58 33 85 14 28 39 94 56 147 26 80 32 118 36 215 2 65 5 136 7
158 3 37 1 40 -25 43 -23 3 -36 -5 -62 -35 -19 -21 -37 -54 -41 -73 -4 -19
-20 -51 -36 -70 -16 -19 -51 -66 -77 -103 -42 -59 -101 -107 -133 -107 -13 0
-65 56 -72 77 -4 11 4 39 19 69 14 27 25 59 25 72 0 13 4 31 10 41 5 10 14 46
19 79 5 34 16 74 23 89 12 24 19 28 50 25 33 -3 38 0 44 22 9 37 -1 56 -36 62
-16 4 -30 9 -30 13 0 10 62 93 107 145 41 46 44 48 74 37 57 -20 75 -14 110
34 17 24 36 42 42 38 11 -7 3 -86 -19 -170 -19 -71 -14 -93 20 -93 18 0 29 10
45 40 12 22 21 47 21 56 0 20 41 75 52 68 12 -8 10 -34 -6 -49 -20 -21 -31
-106 -15 -116 20 -12 39 9 40 45 l2 31 6 -35 c7 -41 35 -53 45 -18 6 21 7 22
20 6 7 -10 18 -18 23 -18 21 0 42 37 45 79 5 68 26 64 30 -6 2 -32 7 -58 13
-58 15 0 36 51 45 113 15 102 26 120 94 154 159 83 273 104 381 73z m305 -72
c0 -7 9 -17 21 -23 11 -7 18 -14 14 -18 -10 -10 -99 -42 -117 -42 -22 0 -33
-19 -20 -32 8 -8 6 -20 -4 -41 -15 -28 -15 -31 5 -50 17 -17 24 -19 43 -9 39
19 117 42 144 42 25 0 26 -2 21 -42 -3 -24 -11 -65 -17 -93 -6 -27 -16 -77
-21 -109 -6 -33 -20 -76 -30 -95 -23 -42 -24 -95 -5 -133 13 -25 13 -29 -3
-40 -46 -34 -46 -85 0 -95 27 -5 29 -9 29 -49 0 -33 -5 -46 -22 -58 -26 -18
-100 -21 -130 -5 -55 29 -118 98 -118 127 0 13 -7 40 -16 60 -56 132 -65 157
-75 227 -5 33 -13 73 -19 88 -5 15 -8 33 -6 40 2 7 10 46 16 87 7 41 19 85 26
97 8 12 14 27 14 33 0 14 86 127 105 137 23 13 165 10 165 -4z m-2600 -84 c0
-7 -9 -26 -19 -43 -24 -39 -37 -121 -21 -131 6 -4 19 0 29 9 16 15 19 15 31 1
7 -8 21 -15 31 -15 14 0 19 -7 19 -25 0 -18 5 -25 19 -25 10 0 21 7 25 15 3 8
10 15 16 15 15 0 12 -27 -6 -55 -9 -13 -13 -29 -9 -35 10 -16 45 -12 51 8 12
38 34 67 51 67 14 0 18 -8 18 -35 0 -29 4 -36 22 -38 17 -3 24 3 29 25 15 60
58 97 134 113 19 5 65 19 101 33 63 24 78 25 280 26 161 1 224 -2 254 -13 44
-15 55 -36 30 -56 -8 -7 -15 -18 -15 -25 0 -7 -7 -18 -15 -25 -9 -7 -15 -29
-15 -52 0 -47 -24 -157 -56 -256 -29 -91 -35 -101 -65 -115 -21 -11 -25 -21
-30 -87 -9 -102 -28 -163 -90 -295 -16 -33 -29 -66 -29 -73 0 -7 -13 -40 -29
-75 -47 -104 -61 -137 -61 -151 0 -8 -6 -19 -14 -26 -8 -6 -16 -21 -18 -32 -2
-12 -9 -23 -15 -26 -15 -4 -18 54 -4 63 5 3 13 20 16 38 7 30 13 44 50 116 8
16 15 36 15 45 0 8 7 32 16 53 20 45 26 60 54 133 12 30 27 66 32 80 6 14 14
41 19 60 4 19 11 47 15 63 7 28 -5 51 -36 67 -28 15 -41 -5 -60 -96 -10 -49
-23 -105 -30 -124 -7 -19 -15 -39 -16 -45 -2 -5 -8 -17 -13 -25 -22 -34 -71
-148 -71 -163 0 -9 -4 -18 -9 -22 -6 -3 -21 -30 -35 -60 -14 -29 -31 -57 -36
-60 -6 -3 -10 -19 -10 -34 0 -16 -7 -34 -15 -41 -13 -11 -15 -7 -15 28 0 23 6
45 15 52 8 7 15 20 15 29 0 10 7 26 15 37 8 10 15 28 15 40 0 11 7 29 15 40 8
10 15 27 15 36 0 9 7 29 15 45 71 138 105 225 105 272 0 66 -16 81 -85 81 -30
0 -66 -5 -82 -11 -49 -19 -218 -20 -267 -2 -67 25 -76 17 -76 -71 0 -77 -6
-106 -21 -106 -5 0 -9 42 -9 94 0 74 -4 98 -16 111 -24 23 -38 14 -45 -31 -3
-21 -11 -52 -18 -67 -6 -16 -11 -44 -11 -64 0 -19 -6 -47 -14 -61 -8 -15 -17
-35 -20 -45 -3 -10 -10 -15 -16 -12 -13 8 -13 85 -1 85 6 0 12 21 16 48 3 26
12 69 20 96 19 61 19 153 0 186 -8 14 -14 35 -15 46 0 32 -38 111 -56 118 -26
10 -81 7 -111 -6 -15 -7 -53 -31 -83 -53 -118 -88 -243 -166 -263 -163 -30 5
-61 51 -53 82 6 25 7 25 35 8 24 -13 34 -14 55 -4 36 16 33 45 -9 80 l-35 29
37 49 c21 27 86 97 145 157 64 63 110 119 114 135 10 41 23 53 44 42 32 -17
78 -12 90 10 11 21 40 28 40 9z m1776 -56 c-11 -11 -17 4 -9 23 7 18 8 18 11
1 2 -10 1 -21 -2 -24z m-76 -5 c0 -13 -4 -29 -9 -37 -13 -20 -24 4 -17 35 8
30 26 32 26 2z m1700 -110 c-7 -51 -16 -138 -20 -193 -16 -183 -26 -223 -45
-177 -4 9 -10 69 -12 132 -3 74 -10 123 -19 137 -17 26 -18 59 -3 68 6 4 14
14 17 24 4 9 23 40 41 69 47 72 57 57 41 -60z m-1146 -295 c9 -32 23 -71 31
-86 19 -36 19 -46 -1 -68 -9 -10 -24 -50 -35 -89 -10 -39 -21 -75 -24 -81 -4
-5 -11 -37 -15 -71 -5 -34 -13 -64 -17 -67 -5 -3 -14 -17 -20 -31 l-12 -25 0
28 c-1 15 3 27 8 27 10 0 8 228 -4 337 -7 68 -6 73 24 127 18 31 36 56 41 56
5 0 16 -26 24 -57z m-886 -101 c2 -15 -2 -22 -12 -22 -11 0 -16 9 -16 26 0 31
23 28 28 -4z m1771 -4 c-1 -18 -4 -44 -8 -58 -7 -22 -9 -19 -16 22 -4 26 -4
51 0 57 13 21 25 10 24 -21z m-1024 -8 c0 -7 -6 -15 -12 -17 -8 -3 -13 4 -13
17 0 13 5 20 13 18 6 -3 12 -11 12 -18z m-32 -78 c-3 -12 -9 -22 -14 -22 -5 0
-9 -22 -9 -49 0 -30 -5 -53 -14 -61 -8 -6 -16 -23 -18 -37 -2 -15 -9 -28 -15
-31 -18 -5 -16 68 2 92 8 11 15 30 15 42 0 12 7 27 15 34 8 7 15 21 15 30 0
10 3 26 6 35 10 25 25 -5 17 -33z m-713 -20 c0 -26 -5 -53 -11 -59 -6 -6 -15
-29 -20 -50 -15 -70 -34 -130 -46 -144 -6 -8 -13 -24 -15 -37 -4 -28 -24 -25
-21 3 4 61 49 244 72 297 23 53 41 49 41 -10z m596 3 c4 -8 -1 -26 -9 -38 -8
-13 -17 -34 -19 -47 -4 -28 -28 -40 -28 -13 0 26 32 113 42 113 5 0 11 -7 14
-15z m1412 -85 c0 -25 -3 -56 -7 -70 -7 -23 -8 -21 -14 15 -9 52 -9 109 0 132
6 16 8 15 14 -7 4 -14 7 -45 7 -70z m-1871 -77 c-3 -10 -5 -2 -5 17 0 19 2 27
5 18 2 -10 2 -26 0 -35z m63 0 c0 -30 -3 -44 -10 -37 -8 8 -3 84 6 84 2 0 4
-21 4 -47z m340 -7 c0 -42 -9 -68 -21 -60 -10 6 -12 54 -3 78 11 28 24 17 24
-18z m1500 -113 c0 -23 6 -57 14 -75 8 -18 22 -53 31 -78 9 -25 24 -58 32 -73
11 -21 12 -32 5 -39 -13 -13 -39 5 -53 37 -5 11 -13 27 -18 35 -15 27 -32 84
-37 125 -2 22 -7 59 -10 82 -3 24 -2 48 2 54 13 21 34 -22 34 -68z m-1920 33
c0 -14 -5 -28 -10 -31 -13 -8 -24 20 -16 40 9 24 26 17 26 -9z m503 -23 c-3
-7 -9 -13 -14 -13 -11 0 -12 21 -2 46 6 16 7 16 13 -2 4 -10 5 -25 3 -31z
m1087 -26 c-1 -29 -7 -81 -15 -117 -8 -36 -14 -79 -15 -96 0 -18 -9 -51 -19
-75 -12 -27 -17 -54 -14 -75 7 -40 -3 -84 -18 -84 -14 0 -2 150 12 165 5 5 9
39 9 75 0 36 7 92 15 123 8 32 15 71 15 87 0 15 3 35 6 44 11 30 24 5 24 -47z
m-3071 -49 c0 -31 -1 -31 -10 -10 -5 13 -7 28 -3 33 10 16 14 9 13 -23z m1951
5 c0 -19 -3 -24 -10 -17 -6 6 -8 18 -4 27 9 24 14 21 14 -10z m-443 -37 c-5
-35 -23 -88 -43 -128 -8 -14 -14 -33 -14 -41 0 -8 -7 -28 -15 -43 -8 -16 -15
-36 -15 -45 0 -26 -95 -245 -111 -255 -5 -3 -9 -14 -9 -24 0 -11 -13 -46 -29
-77 -15 -32 -35 -75 -44 -95 -19 -43 -47 -51 -47 -15 0 13 14 50 30 82 17 32
30 63 30 69 0 6 13 38 29 71 61 126 89 191 96 222 3 18 11 35 16 38 5 4 9 17
9 29 0 13 7 29 15 36 8 7 15 18 15 25 0 7 7 26 15 41 8 16 15 36 15 45 0 8 7
24 15 35 8 10 15 28 15 40 0 25 9 36 22 28 6 -4 8 -20 5 -38z m-1527 -38 c0
-7 -4 -19 -9 -27 -11 -17 -25 3 -17 24 7 18 26 20 26 3z m1168 -45 c-4 -39
-28 -42 -28 -4 0 21 5 31 16 31 11 0 14 -8 12 -27z m-28 -55 c0 -7 -4 -19 -9
-27 -11 -17 -23 1 -15 23 7 19 24 21 24 4z m-38 -93 c-11 -21 -25 -4 -16 20 4
10 10 13 16 7 7 -7 7 -16 0 -27z m-592 -100 c0 -20 -40 -95 -51 -95 -15 0 -10
40 5 46 8 3 16 18 20 35 6 30 26 41 26 14z m30 -93 c0 -13 -12 -22 -22 -16
-10 6 -1 24 13 24 5 0 9 -4 9 -8z m-120 -89 c0 -10 -12 -29 -25 -42 -20 -18
-25 -20 -25 -7 0 9 5 16 10 16 6 0 10 8 10 18 0 10 3 22 7 25 12 12 23 7 23
-10z m52 -45 c-15 -15 -24 -6 -16 16 5 12 10 14 17 7 8 -8 8 -14 -1 -23z m-22
-42 c0 -16 -18 -31 -27 -22 -8 8 5 36 17 36 5 0 10 -6 10 -14z"/>
<path d="M5137 2662 c-22 -24 -21 -35 2 -56 30 -27 65 -17 69 19 6 48 -40 71
-71 37z"/>
<path d="M4970 2631 c-16 -31 -12 -49 15 -67 24 -16 27 -16 45 1 11 10 20 27
20 37 0 44 -60 65 -80 29z"/>
<path d="M5000 2189 c-14 -26 11 -69 40 -69 31 0 45 36 25 66 -19 29 -50 31
-65 3z"/>
<path d="M2702 2588 c-17 -17 -15 -67 3 -74 8 -4 26 -3 40 0 29 7 44 49 25 71
-15 18 -51 20 -68 3z"/>
<path d="M2594 2202 c-34 -23 -12 -82 30 -82 36 0 49 46 20 74 -17 17 -33 20
-50 8z"/>
<path d="M2837 1719 c-14 -19 -14 -25 -1 -50 17 -34 48 -38 64 -9 11 20 4 70
-10 70 -5 0 -15 3 -23 6 -9 3 -21 -4 -30 -17z"/>
<path d="M2685 1380 c-15 -17 -16 -24 -5 -50 14 -33 39 -39 64 -14 22 22 20
50 -6 68 -29 20 -31 20 -53 -4z"/>
<path d="M4150 1797 c-17 -18 -18 -23 -6 -41 17 -26 64 -34 72 -12 20 51 -31
91 -66 53z"/>
<path d="M3987 1783 c-15 -14 -7 -63 12 -73 38 -20 76 16 60 58 -6 16 -16 22
-37 22 -16 0 -32 -3 -35 -7z"/>
<path d="M4062 1304 c-28 -20 -28 -35 2 -63 20 -19 28 -21 45 -12 28 15 29 66
2 81 -25 13 -22 13 -49 -6z"/>
<path d="M1368 1765 c-14 -31 -2 -58 29 -63 26 -4 55 31 51 60 -2 18 -10 24
-35 26 -27 3 -35 -1 -45 -23z"/>
</g>
</svg>
