<svg xmlns="http://www.w3.org/2000/svg" id="Ebene_1" data-name="Ebene 1" viewBox="0 0 433.61 318.53"><defs><style>.cls-1{fill:#fff}</style></defs><path d="M105.96 267.78c0-2.7-2-1.6-2.6 1.4-.4 1.7-1.2 3.2-2 3.5-1.5.6-2 4.6-.5 4.6 1.1 0 5.1-7.5 5.1-9.5m-5.4 21.1c-.8 2.2.1 3.1 1.6 1.6.9-.9.9-1.5.1-2.3-.7-.7-1.2-.5-1.7.7m164.4-101.6c0 1.3.5 2 1.3 1.7.6-.2 1.2-1 1.2-1.7s-.6-1.5-1.2-1.8c-.8-.2-1.3.5-1.3 1.8m-32.8-45.3c-.4-7-2.5-7.4-3-.6-.3 4.2-2.4 7.9-4.5 7.9-.5 0-1.6-.8-2.3-1.8-1.3-1.6-1.4-1.5-2 .6-1 3.5-3.8 2.3-4.5-1.8l-.6-3.5-.2 3.1c-.1 3.6-2 5.7-4 4.5-1.6-1-.5-9.5 1.5-11.6 1.6-1.5 1.8-4.1.6-4.9-1.1-.7-5.2 4.8-5.2 6.8 0 .9-.9 3.4-2.1 5.6-1.6 3-2.7 4-4.5 4-3.4 0-3.9-2.2-2-9.3 2.2-8.4 3-16.3 1.9-17-.6-.4-2.5 1.4-4.2 3.8-3.5 4.8-5.3 5.4-11 3.4-3-1.1-3.3-.9-7.4 3.7-4.5 5.2-10.7 13.5-10.7 14.5 0 .4 1.4.9 3 1.3 3.5.6 4.5 2.5 3.6 6.2-.6 2.2-1.1 2.5-4.4 2.2-3.1-.3-3.8.1-5 2.5-.7 1.5-1.8 5.5-2.3 8.9-.5 3.3-1.4 6.9-1.9 7.9-.6 1-1 2.8-1 4.1s-1.1 4.5-2.5 7.2c-1.5 3-2.3 5.8-1.9 6.9.7 2.1 5.9 7.7 7.2 7.7 3.2 0 9.1-4.8 13.3-10.7 2.6-3.7 6.1-8.4 7.7-10.3s3.2-5.1 3.6-7 2.2-5.2 4.1-7.3c2.6-3 3.9-3.8 6.2-3.5 2.6.3 2.8.6 2.5 4.3-.2 2.2-.5 9.3-.7 15.8-.4 9.7-1 13.5-3.6 21.5-1.7 5.3-4.2 11.9-5.6 14.7-1.4 2.7-2.9 6.6-3.3 8.5-1 4.4-2.8 9.6-4.6 13.3-.8 1.6-1.4 3.8-1.4 5-.1 1.2-.7 3.3-1.5 4.7-1.8 3.2-2 9.3-.2 8.8.6-.3 1.4-1.5 1.5-2.9.2-1.3.9-3 1.5-3.8 1.5-1.8 2.9-4.4 7-12.6 3.2-6.6 4.7-10.2 7.7-18.5 1.2-3.6 3.5-13.8 4.8-22 .4-2.5 1.1-5.1 1.5-5.8 1.3-2 7.5-1.4 9.8.9 1.8 1.8 2.5 2 4.1 1 1-.6 3-.8 4.3-.5 3.1.8 16.6-2.2 22-4.8 5.3-2.6 6.9-3.6 14.3-8.6 3.5-2.3 6.9-4.2 7.6-4.2 1.8 0 8.5-10.7 10.3-16.5.9-2.7 1.9-5.5 2.3-6 .4-.6 1.1-3.7 1.4-7 .8-6.9 3.4-16.3 5.1-18.5.7-.8 1.5-2.2 1.9-3 .8-1.8 2.5-4.5 5-8.3 2.4-3.6 1.2-5.1-5.9-7.2-10.8-3.1-22.2-1-38.1 7.3-6.8 3.4-7.9 5.2-9.4 15.4-.9 6.2-3 11.3-4.5 11.3-.6 0-1.1-2.6-1.3-5.8m117.3-25.3-5.1-.1-2.2 6.9c-1.2 3.9-3.4 8.6-5 10.7-3.3 4.3-5.2 9.5-6.2 17-.9 6.8-2.7 14.3-4.8 19.3-2 5-1.8 13.7.4 17.9 1.2 2.4 1.7 5.6 1.7 11.1-.1 7.4 0 7.8 2.1 7.8 1.2 0 6.3-2.7 11.3-6 13.7-8.9 22.7-19.6 30.9-36.8 3.5-7.3 6.4-13.4 6.4-13.7 0-.6 10.6-16 14.7-21.3 3.8-5 4.1-4.1-4.3-12.6-4.4-4.5-6.9-9.7-7.9-16.6-.8-5.3-.8-4.8.1-21.1.5-10.2.4-13.1-.9-15.5-.8-1.6-1.8-5.7-2.2-9.2-.8-7.1-2.5-8-7.1-3.7-3.2 3-5.1 3.1-8.4.5l-2.5-1.9 3.2-4.5c1.8-2.5 2.8-4.8 2.2-5.1-.5-.4-1.2.1-1.5.9-.3.9-1 1.6-1.5 1.6s-2.8 1.3-5 3c-4.9 3.5-10.7 4.9-12 2.9-1-1.6-.1-5.8 1.6-7.9.7-.8 1.6-2.5 1.9-3.6.4-1.2 1.8-3.4 3.2-4.9s3.6-4.4 4.8-6.4c1.3-2 3.1-4.2 4-5 2.5-2.1 2-3.4-3.1-7.2-6.9-5-11-6.6-20.4-7.9-4.6-.6-9.7-1.2-11.4-1.4-3-.3-9.6 1.4-14.8 4-1.6.8-3.4 1.4-4 1.4-2.5 0-17.7 11.3-23.7 17.6-6.6 7-16 18.7-16 19.9 0 .4-1.3 2.4-3 4.5-4 5.1-4.1 10.1-.2 12.7 2.8 2 8.1 4.2 14.2 6.1 11 3.4 50.8 3.7 64.9.6 10.2-2.3 18.8-2.1 23.9.6 5.3 2.8 6.6 5 4.7 7.7-1.8 2.6-11.4 10-16.5 12.7-4.9 2.6-5.1 3.9-.7 4.8 3.2.7 10.7 6.7 10.7 8.6 0 1.5-6.7 6.2-8.9 6.2-1.4 0-2.1.8-2.3 2.7-.3 2.7-.5 2.8-5.3 2.7m-290.6 99.6c-1.2 0-1.2 7.7.1 8.5.6.3 1.3-.2 1.6-1.2s1.2-3 2-4.5c.8-1.4 1.4-4.2 1.4-6.1 0-2 .5-4.8 1.1-6.4.7-1.5 1.5-4.6 1.8-6.7.7-4.5 2.1-5.4 4.5-3.1 1.2 1.3 1.6 3.7 1.6 11.1 0 5.2.4 9.4.9 9.4 1.5 0 2.1-2.9 2.1-10.6 0-8.8.9-9.6 7.6-7.1 4.9 1.8 21.8 1.7 26.7-.2 1.6-.6 5.2-1.1 8.2-1.1 6.9 0 8.5 1.5 8.5 8.1 0 4.7-3.4 13.4-10.5 27.2-.8 1.6-1.5 3.6-1.5 4.5s-.7 2.6-1.5 3.6c-.8 1.1-1.5 2.9-1.5 4 0 1.2-.7 3-1.5 4-.8 1.1-1.5 2.7-1.5 3.7 0 .9-.7 2.2-1.5 2.9-.9.7-1.5 2.9-1.5 5.2 0 3.5.2 3.9 1.5 2.8.8-.7 1.5-2.5 1.5-4.1 0-1.5.4-3.1 1-3.4.5-.3 2.2-3.1 3.6-6 1.4-3 2.9-5.7 3.5-6 .5-.4.9-1.3.9-2.2 0-1.5 4.9-12.9 7.1-16.3.5-.8 1.1-2 1.3-2.5.1-.6.9-2.6 1.6-4.5s2-7.5 3-12.4c1.9-9.1 3.2-11.1 6-9.6 3.1 1.6 4.3 3.9 3.6 6.7-.4 1.6-1.1 4.4-1.5 6.3-.5 1.9-1.3 4.6-1.9 6-.5 1.4-2 5-3.2 8-2.8 7.3-3.4 8.8-5.4 13.3-.9 2.1-1.6 4.5-1.6 5.3 0 .9-.7 2.9-1.5 4.5-3.7 7.2-4.3 8.6-5 11.6-.3 1.8-1.1 3.5-1.6 3.8-1.4.9-1.1 6.7.4 6.3.6-.3 1.3-1.4 1.5-2.6.2-1.1 1-2.6 1.8-3.2.8-.7 1.4-1.8 1.4-2.6 0-1.4 1.4-4.7 6.1-15.1 1.6-3.5 2.9-6.8 2.9-7.5s1.3-4 2.9-7.3c6.2-13.2 8.1-19.3 9-29.5.5-6.6.9-7.6 3-8.7 3-1.4 3.6-2.4 6.5-11.5 3.2-9.9 5.6-20.9 5.6-25.6 0-2.3.6-4.5 1.5-5.2.8-.7 1.5-1.8 1.5-2.5s.7-1.8 1.5-2.5c2.5-2 1.4-4.1-3-5.6-3-1.1-9.3-1.4-25.4-1.3-20.2.1-21.7.2-28 2.6-3.6 1.4-8.2 2.8-10.1 3.3-7.6 1.6-11.9 5.3-13.4 11.3-.5 2.2-1.2 2.8-2.9 2.5-1.8-.2-2.2-.9-2.2-3.8 0-2.7-.4-3.5-1.8-3.5-1.7 0-3.9 2.9-5.1 6.7-.6 2-4.1 2.4-5.1.8-.4-.6 0-2.2.9-3.5 1.8-2.8 2.1-5.5.6-5.5-.6 0-1.3.7-1.6 1.5-.4.8-1.5 1.5-2.5 1.5-1.4 0-1.9-.7-1.9-2.5s-.5-2.5-1.9-2.5c-1 0-2.4-.7-3.1-1.5-1.2-1.4-1.5-1.4-3.1.1-1 .9-2.3 1.3-2.9.9-1.6-1-.3-9.2 2.1-13.1 1-1.7 1.9-3.6 1.9-4.3 0-1.9-2.9-1.2-4 .9-1.2 2.2-5.8 2.7-9 1-2.1-1.1-3.4.1-4.4 4.2-.4 1.6-5 7.2-11.4 13.5-5.9 6-12.4 13-14.5 15.7l-3.7 4.9 3.5 2.9c4.2 3.5 4.5 6.4.9 8-2.1 1-3.1.9-5.5-.4-2.8-1.7-2.9-1.7-3.5.8-.8 3.1 2.3 7.7 5.3 8.2 2 .3 14.5-7.5 26.3-16.3 3-2.2 6.8-4.6 8.3-5.3 3-1.3 8.5-1.6 11.1-.6 1.8.7 5.6 8.6 5.6 11.8.1 1.1.7 3.2 1.5 4.6 1.9 3.3 1.9 12.5 0 18.6-.8 2.7-1.7 7-2 9.6-.4 2.7-1 4.8-1.6 4.8m282.6-101.9c3 .3 4 0 4-1.1 0-1.7-7.9-2.7-8.9-1.1-.9 1.3.2 1.8 4.9 2.2m-108.8 18.3c-.8 1.9-.2 3.4.9 2.3.3-.3.4-1.4.2-2.4-.3-1.7-.4-1.7-1.1.1m31.6 62.4c.8-2.8-.7-5.8-1.7-3.3-.3.9-.6 2.5-.6 3.5 0 .56-.27 1.32-.67 1.98-.24.4-.53.76-.83 1.02-.8.7-1.5 2.2-1.5 3.4s-.7 3.1-1.5 4.2c-1.8 2.4-2 9.7-.2 9.2.6-.3 1.3-1.6 1.5-3.1.2-1.4 1-3.1 1.8-3.7.9-.8 1.4-3.1 1.4-6.1 0-2.19.26-4.06.63-4.68.09-.14.18-.22.27-.22.5 0 1.1-1 1.4-2.2m-17.3 11.5c0 2.7 2.4 1.5 2.8-1.3.2-1.3 1.1-3.4 1.9-4.7.8-1.2 1.3-3 .9-3.8-.3-.8-.9-1.5-1.4-1.5-1 0-4.2 8.7-4.2 11.3m0 7.1c0-3.5-1.3-4.6-2.4-1.8-.9 2.4-.7 7.2.3 7.8 1.2.8 2.1-1.8 2.1-6m-78 34.8c0-1.7-1.7-1.5-2.4.4-.8 2.2.4 4 1.5 2.3.5-.8.9-2 .9-2.7m0-5.1c0 3.8 2.4 3.5 2.8-.4.2-1.9-.1-2.7-1.2-2.7s-1.6 1-1.6 3.1m-70 49.9c-1.2 0-2.5 2.8-1.7 3.6.9.9 2.7-.6 2.7-2.2 0-.8-.5-1.4-1-1.4m-28.5-53c-.4 1.7-3.3 8.2-6.6 14.7-3.2 6.4-5.9 12-5.9 12.5 0 .9-4 9.6-10.8 23.5l-4.5 9.2-5 .6c-5.8.8-8-.5-5.4-3.3.9-1 1.7-2.6 1.7-3.4 0-.9.7-2.1 1.5-2.8s1.5-1.7 1.5-2.3.6-1.8 1.4-2.6c2.5-2.8 10.6-19.4 10.6-21.7 0-1.2.7-2.4 1.5-2.8 1.7-.6 2.1-3.6.4-3.6-.6 0-1.3.9-1.6 1.9-.3 1.1-1.1 2.2-1.9 2.5s-1.4 1.2-1.4 2.1c0 1.6-3.9 7.7-5.2 8.3-.5.2-.8.9-.8 1.6 0 2.6-10.6 19.6-13.9 22.4-2 1.7-8.6 1.5-10.1-.3-1.6-1.9-.7-4.2 4-9.5 2.2-2.5 4-4.8 4-5.2s.6-1.3 1.3-2c2.6-2.9 5.7-7.8 5.7-9.1 0-.8.7-2 1.5-2.7s1.5-1.8 1.5-2.5.7-1.8 1.5-2.5 1.5-2.1 1.5-3.1c0-1.1.4-1.9.9-1.9s1.4-1.2 2-2.8c.6-1.5 2.9-5.9 5.1-9.7 2.1-3.9 3.9-7.7 3.9-8.6.1-.9.8-2.2 1.6-2.9s1.5-2.6 1.5-4.2.7-4 1.6-5.3 2-5.3 2.4-8.7c.5-3.5 1.4-9.7 2-13.8.7-4.1 1.2-8 1.2-8.5 0-2.1-2.2-11.2-3.9-16.5-1.8-5.4-1.9-5.5-6-5.8-3.1-.2-5.1.3-7.5 2-1.8 1.3-3.4 2.6-3.6 3-.2.5-.9.8-1.4.8-.6 0-1.8.7-2.7 1.6-.9.8-5.7 4.2-10.8 7.5-8 5.1-9.9 5.9-14 5.9-3.9-.1-5.1-.5-6.6-2.6-3-4-3.2-8.4-.6-14.5 3.5-8.4 8.7-15.7 17.4-24.4 10.2-10.1 13.6-14.6 14.6-19.3 1.9-9.3 5-14.5 8.3-14 1.7.2 2.1 1 2.1 4.3s.4 4.1 2.1 4.3 2.5-.6 4-4.2c1.6-3.8 2.4-4.6 4.5-4.6 1.8 0 2.9.8 3.8 2.6.9 2 1.8 2.5 3.9 2.3 3.8-.4 7 .9 7.7 3 .4 1.3 1.2 1.7 2.6 1.4 4.3-1.2 7.9 5.8 4.4 8.7-1.2 1-1.3 1.6-.5 2.4.7.7 1.3.7 1.8.1 1.4-2 7.3-5.6 8.2-5 1.8 1.1 1 4-2 6.9-3.2 3.1-3.8 4.6-1.7 4.6 1.7-.1 3.8-1.9 7.7-7 5.6-7.2 6.8-8.3 8.4-7.7 2.2.8 2 2.4-.4 4.4-1.1 1-2 2.3-2 3 0 1.8 5.8 1.6 9-.2 1.4-.8 5.1-1.4 8.2-1.5 3.2 0 10.8-.7 17-1.6s12.9-1.3 14.8-.9 6.9 1.3 11 2c4.1.8 8.9 1.7 10.5 2 2.7.5 3.3.2 5.5-3.2 1.4-2.1 2.8-4.1 3.3-4.4.4-.3 1.5-3.4 2.3-7 2.3-8.9 3.7-10.5 6.8-7.3 1 .9 1.6 3.3 1.6 5.9 0 6.4 2.3 6.7 7.8 1.1 2.4-2.5 6.5-5.5 8.9-6.7l4.5-2.2-.7-4.6c-.7-4.6-4.2-9.1-7.2-9.1-.7 0-1.3-.4-1.3-.8 0-.5-1.1-1.4-2.4-2-2-.9-3.5-.5-9.8 2.6-4.1 2-8.2 4.4-9 5.3-2 2-5.8 9-5.8 10.7 0 .7-1.1 1.8-2.5 2.4s-2.5 1.5-2.5 2c0 .4-.4.8-1 .8-.5 0-2.5 1.1-4.5 2.4-2 1.4-6.1 3.2-9.1 4.1-4.7 1.4-6.2 1.4-10.2.3-9.8-2.8-12.2-13.1-5.7-24.9 3.6-6.6 7.8-15.2 10-20.4 1.8-4.2 4.7-10.7 5.5-12.5.4-.9 1.1-3.1 1.5-5s1.4-4.9 2.3-6.5c.8-1.7 1.7-5.5 1.8-8.5.2-3 .9-7.8 1.5-10.5.6-2.8 1.3-6 1.5-7.3.3-1.5 1.1-2.2 2.7-2.2 1.7 0 2.7 1.1 4.2 4.6 1.1 2.5 2.7 5 3.6 5.5 2.5 1.3 13-.3 14-2.1.4-.8 1.7-3.6 2.9-6.3 1.2-2.6 2.7-4.7 3.3-4.7 1.5 0 4.7 3.1 4.7 4.7 0 .7.9 3 2 5 1.1 2.1 2 4.3 2 4.9s.7 2.5 1.6 4.3l1.6 3.2 2.4-2.2c1.3-1.2 2.4-2.7 2.4-3.3.1-1.5 3.6-5.6 4.7-5.6.5 0 2 1.2 3.4 2.6 1.9 2 3.1 2.5 5.6 2.1 2.6-.5 3.5-.1 5 2.1.9 1.5 1.8 4.3 1.8 6.2 0 3.9 2.8 5.1 3.3 1.4.2-1.2 1.4-3.2 2.7-4.4 2.3-2.1 2.5-2.2 3.1-.5.4 1 .2 2.6-.4 3.6-1.7 2.7-1.5 3.3 1.6 5q2.7 1.65 9.6 1.5l7-.1 3-4.2c1.7-2.2 5.2-7.2 7.9-11 7.1-10.1 9.6-13.2 16.2-19.4 5.9-5.6 17.6-14.4 20.5-15.5.8-.3 2.8-1.2 4.3-2 1.6-.7 3.6-1.4 4.6-1.4.9 0 2.6-.7 3.7-1.5 2.8-2.1 22.9-2 30.3.1 6.7 2 9.6 3.4 18.2 9.1 3.6 2.3 7.5 4.3 8.6 4.3 1.2 0 3.3-1.4 4.7-3.1 1.6-1.9 3.2-2.9 4.1-2.5 2.2.8 1.8 3.2-.7 5.6l-2.3 2.1 2.4 2c2.2 1.8 2.5 1.8 5.1.2 3.5-2 6.1-1.2 5.3 1.7-.9 3.5 2.5 6.3 7 5.7 2.9-.4 4-.1 4.4 1 .4.9-.1 1.9-1 2.5-1.8 1-2.3 3.3-.8 4.2 2 1.3 7.8-2.3 9.7-6 2.2-4.3 4.3-6.8 7.2-8.3 2.6-1.4 3.2-.5 3.2 4.1 0 3.9 2.4 10.2 6.4 16.8 1.2 1.9 3 6.1 4.1 9.3l1.9 5.8-2.4 8.7c-2.7 9.8-2.8 12.7-.8 22.8 1.8 8.7 1.3 16.7-1.2 21.7-1.1 2.1-2 4.3-2 5 0 1.5-12.6 14.7-14 14.7-.5 0-2.7.9-4.9 2.1-6.6 3.4-7.5 5.7-8.3 20.4-.3 7.1-1.1 15.2-1.7 18-1.5 7.5-1.4 33.1.3 39.5.7 3 1.6 7.9 1.9 10.9.4 2.9 1 5.8 1.5 6.5.5.6 1.3 2.8 1.6 5 .4 2.1 1.1 4.6 1.6 5.5s1.9 3.8 3 6.6c1.1 2.7 2.5 5.8 3 6.7 1.9 3.3 1.2 6.8-1.5 7.8-3.2 1.2-4.9.5-9.3-3.8-5.3-5.3-8.8-13.5-9.5-21.8-.3-3.9-1-9.7-1.6-13-2.8-16.2-3.5-22.1-4.2-35.9-.4-8.3-1-16.5-1.4-18.3-1-4.7-3.8-3.9-4.7 1.3-.3 2.2-1.1 5.8-1.7 8-4.1 16.4-7.1 31.9-8.1 42.5-2.1 22.3-3.9 35.2-7 51.5-1.3 6.6-4.5 14.5-5.9 14.5-.5 0-2.3.3-4 .6l-3.1.7v-7.4c0-4.1.4-8.9 1-10.8.5-1.8 1.2-6.1 1.5-9.5.6-6.6 2.8-20.2 5.1-30.7.8-3.7 1.4-8.2 1.4-10 .1-1.9.7-5.2 1.5-7.4 1.5-4 2-14.6.9-15.8-.4-.4-2.4 1.1-4.6 3.2-3.4 3.4-9.3 7.4-21.6 14.8-2.1 1.2-5.3 2.2-7.2 2.2-2 .1-4.5.7-5.6 1.5-2.82 2.03-11.4 2.42-14.96.98-.48-.19-.87-.42-1.14-.68-1.1-.9-2.3-1.7-2.6-1.7-.4 0-2.6-1.4-5-3.1l-4.2-3-.6 3.8c-.4 2.1-.9 9.1-1.1 15.6-.5 10.5-.4 11.8 1.1 11.5.9-.2 1.8-1.4 2.1-2.8s2.2-5.6 4.3-9.3c3.1-5.4 4.13-8.25 6.03-8.25 3.4 0 3.27 3.15-.83 8.95-1.9 2.7-3.5 5.5-3.5 6.2s-.6 2.5-1.4 4.1c-2.9 5.6-4.6 10.1-4.6 12.2 0 1.1-.6 3.5-1.4 5.3s-2.1 4.9-3 7c-.9 2-1.6 4.3-1.6 5.2 0 .8-.6 3-1.4 4.8-2.8 6.6-4.6 13.4-4.6 16.9 0 2-.7 5.8-1.5 8.5s-1.5 6.3-1.5 8.1c0 1.7-.4 3.4-.9 3.7s-1.2 2.6-1.5 5.1l-.7 4.5h-4.5c-4.3 0-4.4-.1-4.4-3.3 0-1.7.7-4.1 1.5-5.1.8-1.1 1.5-3.2 1.5-4.6s.5-3.1 1.1-3.7c1.2-1.2 4.9-14.5 4.9-17.6 0-1.7.6-4 4.1-15.2.6-1.7 1.2-6.2 1.6-10 .3-3.9 1.1-7.9 1.8-9.1.7-1.1 1.5-5.2 1.8-9s.9-10.5 1.5-14.9c1.2-9.4 1.1-25.9-.2-26.3-1.1-.4-3.5 5.8-4.6 11.8-.8 5.1-3.6 15.6-4.5 16.9-.3.6-1 2.9-1.5 5.3s-1.6 7.2-2.4 10.8-2 9-2.6 12-1.6 7.5-2.2 10c-.5 2.5-1.4 8.5-1.9 13.5-.9 9.7-2.8 19.3-4.7 23.8-.7 1.6-1.2 3.5-1.2 4.3 0 1.8-6.1 1.9-7.8.2-1.5-1.5-1.5-4.1-.1-5.5 1.6-1.6 4.9-11.1 4.9-14 0-1.2.4-2.4.9-2.8.5-.3 1.3-3.1 1.6-6.3.4-3.1 1.3-8 2-10.7.7-2.8 1.6-8.4 1.9-12.6.4-4.2 1.1-9.1 1.6-11 1.4-4.8 1.6-39.7.3-41-.7-.7-1.8 1.3-3.6 6.8-1.4 4.3-3.7 11.2-5.1 15.3s-3.3 10.3-4.2 13.8c-1.9 6.8-2.7 7.6-9.1 8.7-3.9.6-4.3.5-4.3-1.4 0-3-1.9-3.6-3-.9-.5 1.3-1.4 3-1.9 3.8s-1.2 2.3-1.5 3.3c-.5 1.5-1.5 1.8-5.8 1.5-4.7-.3-5.3-.6-5.6-2.6-.2-1.3.3-3.1 1.2-4.1 1.9-2.1 5.7-8.9 8.6-15.1 1.1-2.5 2.7-5.8 3.5-7.3.8-1.6 1.5-3.7 1.5-4.7 0-.9.7-3.4 1.5-5.3.8-2 1.5-5 1.5-6.6s.5-3.3 1-3.6c.6-.3 1-2 1-3.7 0-2.9-.1-3-3.2-2.4-1.8.4-6.2 1-9.8 1.4s-7 1.1-7.7 1.5c-1.1.7-5.3 13.2-5.3 16 0 .8-.7 2.8-1.5 4.3-.8 1.6-1.5 4.2-1.5 5.9-.1 2.7-1.8 8.3-4.9 15.8-.6 1.6-1.8 5.2-2.7 8-2.7 8.9-4.6 14.1-6.2 17.7-.8 1.9-2.1 4.8-2.8 6.5-4.6 11.2-7.7 17.7-9.1 19.3-.7.7-1.3 2.1-1.3 3.1 0 .9-.5 2.2-1.1 2.8s-1.4 2.6-1.8 4.4c-1 5-4.4 6.8-11.8 6.2-3.8-.3-6.3-1-6.3-1.7.1-.6 1.4-2.7 3-4.6 1.7-1.9 3-4 3-4.8s.6-2.6 1.4-4c.8-1.5 2.3-4.7 3.4-7.2s3.7-8 5.7-12.4c3.6-8 5.8-13.5 7.6-19.3.5-1.8 1.4-3.5 1.9-3.8 1.3-.8 1.3-5.5.1-5.5-1.1 0-5.1 6.6-5.1 8.4 0 .8-.7 1.9-1.5 2.6s-1.5 2.1-1.5 3c0 1-.6 3.1-1.4 4.7-1.9 3.9-7.5 16.2-9 19.8-2.6 6.1-4.4 10.2-7.8 17-3.9 7.7-6 8.9-10.4 6-3.1-2-2.7-4.7 1.6-10.7 1.7-2.3 3-4.6 3-5.2s1.4-4 3.1-7.6c2.9-6.1 4.9-10.4 6.3-14 .3-.8 1.1-2.2 1.8-3.2 1.5-2-.4-4.8-3.4-4.8-1 0-2.9-1.1-4.2-2.5-2-2.2-2.5-2.3-3-.9-.3.8-.6 2.4-.6 3.4 0 3.1-3 4-8.6 2.6-3.8-.9-5-1.7-5.2-3.4-.2-1.2.3-2.8 1-3.6 8.2-8.4 11.6-13.3 15.2-21.6 2.8-6.5 8.1-29.8 7-30.9-.3-.3-3-.6-5.9-.6-4.3 0-5.9-.5-8-2.5-3.3-3.1-5.7-1.9-6.8 3.6-1.4 6.6-3.8 13.6-6.8 20-1.6 3.3-2.9 6.4-2.9 6.8 0 .3-1.4 3.7-3.1 7.4s-3.5 7.6-4 8.7c-.4 1.1-1.7 4.1-2.8 6.7-1.2 2.6-2.1 5.1-2.1 5.5 0 1.2-3.2 7.3-5.6 10.9-1.1 1.6-3 4.8-4.2 7.1-1.1 2.3-2.5 5-3.1 6s-2.2 4.3-3.6 7.4c-3.5 7.9-6.6 10.9-10.9 10.9-3.8 0-4.7-1.2-3.5-5.3.4-1.5.6-2.7.3-2.7-.2 0-2 1.8-4 4-3.3 3.6-4.1 4-8.5 4s-4.9-.2-4.9-2.5c0-1.5 1.1-3.6 2.6-5 2.4-2.2 5.7-7.3 8.7-13.5.6-1.4 1.5-2.7 1.9-3s1.2-1.7 1.7-3c.6-1.4 1.5-3.2 2-4 1.9-3.2 4.1-9.2 4.1-11 0-1 .6-3.1 1.4-4.7.8-1.5 2.1-4.4 2.9-6.3s2.2-5.1 3-7 2.3-5.5 3.2-8c1-2.5 2.4-5.9 3.1-7.7.8-1.7 1.4-3.5 1.4-4.1 0-.5.7-1.2 1.5-1.6.8-.3 1.5-1.6 1.5-3 0-1.3.8-3.9 1.7-5.8 3.1-6.1 3.3-6.8 3.3-8.5-.1-4.3-5.8-7.1-8.7-4.2-.6.6-7.3 1.2-16.4 1.5-14.5.4-15.4.5-16.1 2.5-.5 1.1-.5 2.5-.2 3 .3.6.1 1.5-.5 2.2-.5.7-1.4 3.1-2 5.2-1.2 5.1-3 10.3-4.7 13.7-.8 1.4-1.4 3.3-1.4 4.2s-.4 1.6-.9 1.6-1.2 1.4-1.6 3m355-172.6c.9-1.2 1.4-4.3 1.5-9 0-5.7-.5-7.9-2.5-11.5-3.6-6.5-6.5-13-6.5-14.5s-1.5-2.6-2.4-1.7c-.3.3-.6 1.6-.6 2.7 0 3.9-1.5 4.6-10.9 5.7-6.9.8-9.9 1.6-11.4 3-1.7 1.6-3 1.8-6.4 1.3-4.2-.6-4.3-.5-4.3 2.1s1.9 11.4 4.6 21.1c1.7 6.1 1.8 13.2.3 17.1-2.5 6.4-.9 19.8 3.1 26.5.9 1.5 4.4 5.2 7.8 8.4 4.6 4.2 6.1 6.2 5.7 7.5-.8 2.3.2 2.4 4.7.4 4-1.6 12.8-10.9 12.8-13.4 0-.9-1.2-2.7-2.5-4-2.9-2.7-3-3.1-1.1-5.7 1.3-1.7 1.8-1.8 4.7-.7 2.6 1 3.5 1 4.1 0 .9-1.4 0-14-1.3-17.5-1.5-3.9-1.1-15.6.6-17.8m-20.3 183.8c.7-.7.6-1.8-.5-3.9-.8-1.5-2.3-4.8-3.2-7.3s-2.3-6-3.1-7.8-1.4-5.2-1.4-7.5c0-4.6-2.1-8.9-3.4-6.8-.4.6-.5 3-.2 5.4.3 2.3.8 6 1 8.2.5 4.1 2.2 9.8 3.7 12.5.5.8 1.3 2.4 1.8 3.5 1.4 3.2 4 5 5.3 3.7m-9.2-105c1.6-11.7.6-13.2-4.1-6-1.8 2.9-3.7 6-4.1 6.9-.3 1-1.1 2-1.7 2.4-1.5.9-1.4 4.2.3 6.8.9 1.4 1.6 6.3 1.9 13.7.2 6.3.8 12.3 1.2 13.2 1.9 4.6 2.9.6 4.5-17.7.4-5.5 1.3-14.2 2-19.3m-2.2 58.8c0-2.5-.3-5.6-.7-7-.6-2.2-.8-2.3-1.4-.7-.9 2.3-.9 8 0 13.2.6 3.6.7 3.8 1.4 1.5.4-1.4.7-4.5.7-7m-5.5-172.2c1.4-.7 1.5-1.3.7-2.8-1.7-3.2-5-2.4-5 1.1 0 2.1 1.9 2.9 4.3 1.7m-10.3 5.2c0-.6-.5-1-1-1-1.4 0-7 5.4-7 6.8 0 .5-.7 1.3-1.6 1.6-.8.3-1.2 1-.9 1.6.8 1.3 10.5-7 10.5-9m-12-5c2.1 0 11.1-7.5 10.8-9-.6-3-3.5-2-7.6 2.9-4.4 5.2-4.9 6.1-3.2 6.1m3.9 153.2c.1-3.1-1.1-4.2-2.4-2.1-.4.6-.4 3.1 0 5.7.7 4.1.9 4.4 1.6 2.2.4-1.4.7-4 .8-5.8m-5.9 40.1c0-5.2-1.3-7.7-2.4-4.7-.3.9-.6 2.9-.6 4.4 0 1.6-.7 5.5-1.5 8.7-.8 3.1-1.5 8.7-1.5 12.3s-.4 7-.9 7.5c-1.4 1.5-2.6 16.5-1.2 16.5 1.5 0 2.5-4.4 1.8-8.4-.3-2.1.2-4.8 1.4-7.5 1-2.4 1.9-5.7 1.9-7.5.1-1.7.7-6 1.5-9.6s1.4-8.8 1.5-11.7m-13.7-137.7c10.8-5.3 16.6-11.8 12-13.2-1-.3-2.6-1-3.5-1.5-2.2-1.2-6.1-1.2-7.3 0-.6.5-3.9 1.1-7.5 1.4s-10.1 1-14.5 1.6c-11.5 1.4-28 1.3-35.5-.4-3.6-.8-8.6-1.4-11.2-1.5-2.6 0-6.2-.6-8-1.4s-5.2-2.2-7.6-3.2c-2.3-.9-5.7-2.8-7.4-4.1-1.8-1.2-4.1-2.3-5.2-2.3-1.2 0-3.4-.9-5.1-2-2.2-1.5-4.7-2-9.7-2h-6.6l-2.3 4.7c-2.3 4.9-5.6 9.3-7.1 9.3-1.4 0-.9-5.3.7-7 1.9-2.1 2.4-7.1.8-7.7-.6-.2-2.3 2.1-3.6 5.1-3.8 8.3-7.2 7-4.3-1.5.9-2.4 1.6-4.8 1.6-5.2 0-1.1-4.9 2.6-5 3.6 0 1.1-7.1 12.7-7.7 12.7-.2 0-1.3-.5-2.4-1-2.5-1.4-2.4-4.9.2-9.9 2-3.8 1.9-6.1-.2-6.1-.5 0-1.4 1-1.9 2.2-.6 1.3-1.4 3.1-2 4-.5 1-1.4 2.6-1.9 3.5-.4 1-1.8 1.9-3 2.1-3.2.5-2.7-3.1 1.4-9.2 4-6.1 4.1-6.6 1.7-12-1-2.3-2.6-5.8-3.5-7.9-2.5-5.5-4.3-4.9-4.9 1.8l-.3 3-8.2.1c-4.5.1-8.6.5-9.1.8-1.7 1-4.2-.5-5.8-3.6-2.2-4.3-3.4-2.5-3.4 5.1 0 4.4-.5 7.4-1.5 8.7-.8 1-1.4 2.8-1.5 3.9 0 2.2-10 26.4-16.1 39l-3.9 8 3 .8c1.6.4 3.5 1.7 4.1 2.9 1 1.8.8 2.4-.7 3.5-1.1.8-3 1.1-4.6.7-2.6-.5-2.8-.3-2.8 2.5 0 3.5 3 6.1 7.2 6.1 3.5 0 16.8-6.3 19.5-9.2 1.1-1.3 3.3-4.4 4.8-7 3.9-6.8 7.9-10.8 10.8-10.8 3.7 0 8.7-5.1 8.7-8.8 0-1.7.4-3.4 1-3.7 1.7-1 5 1.5 5 3.8 0 2.8 6.6 7.6 11.5 8.4 3.4.5 3.9 1.1 3.6 4.3 0 .8.5 3.5 1.3 6 1.2 4.1 1.7 4.6 5.4 5.5 2.2.6 4.4 1.3 4.8 1.8.4.4 1.7.7 2.9.7 1.3 0 2.8.7 3.5 1.5 1.1 1.3 1.5 1.3 4.1 0 3.6-1.9 6.3-1.9 7.9 0 1.4 1.7 4.6 2 5.4.6.8-1.2 7.7-4.5 13.6-6.6 6-2.1 24.2-2.2 29-.2 1.9.8 5.8 1.8 8.5 2.2 2.8.4 6.4 1.1 8 1.7 2.5.8 3.7.6 6.8-1.2 4.3-2.6 4.6-3.7 1.3-4.6-1.4-.3-3.2-1.4-4-2.3-1.5-1.6-1.5-1.9.3-3.5 1.5-1.4 2.3-1.5 4.5-.5 2 .9 3.2.9 5.1.1 1.4-.7 3.9-1.2 5.5-1.2 2.5 0 2.9-.4 3.2-3.3l.3-3.2 7.5-.3c4.1-.2 8-.8 8.8-1.4.7-.6 3.2-2.1 5.5-3.2m-1.3 16.4c4.1 0 6.1-1.4 3.4-2.4-2.4-.9-10.4-.7-10.4.3 0 1.3 2.6 2.1 7 2.1m-22.3 37.2c.5-4 .4-4.2-2.1-4.2-2.7 0-10.5 2.3-14.4 4.2-1.9 1-2.6.8-4.3-.9-2-1.9-2-2.2-.5-5 1-2.1 1.2-3.3.4-4.1-1.3-1.3-.2-3.2 2-3.2 1.8 0 10.7-3.2 11.7-4.2.4-.4-.3-1.1-1.4-1.8-1.2-.6-2.1-1.6-2.1-2.3 0-1.4-14.2-1.7-16.5-.4-1.9 1-10.5 12.3-10.5 13.7 0 .6-.6 2.1-1.4 3.3-.7 1.2-1.9 5.6-2.6 9.7-.6 4.1-1.4 8-1.6 8.7s.1 2.5.6 4c.6 1.5 1.4 5.5 1.9 8.8 1 7 1.9 9.5 7.5 22.7.9 2 1.6 4.7 1.6 6 0 2.9 6.3 9.8 11.8 12.7 3 1.6 10.4 1.3 13-.5 1.7-1.2 2.2-2.5 2.2-5.8 0-4-.2-4.4-2.9-4.9-4.6-1-4.6-6.1 0-9.5 1.6-1.1 1.6-1.5.3-4-1.9-3.8-1.8-9.1.5-13.3 1-1.9 2.4-6.2 3-9.5.5-3.2 1.5-8.2 2.1-10.9.6-2.8 1.4-6.9 1.7-9.3m-42.3 48.9c2-2.2 2-3.2.1-6.8-.8-1.5-2.2-5.4-3.1-8.6-.8-3.1-1.9-5.7-2.4-5.7s-2.3 2.5-4.1 5.6c-3 5.4-3.1 5.9-2.4 12.7 1.2 10.9 1.4 33.7.4 33.7-.5 0-.9 1.2-.8 2.7v2.8l1.2-2.5c.6-1.4 1.5-2.8 2-3.1.4-.3 1.2-3.3 1.7-6.7.4-3.4 1.1-6.6 1.5-7.1.3-.6 1.4-4.2 2.4-8.1 1.1-3.9 2.6-7.9 3.5-8.9m-29.1 32.6c.2-.6.1-2.1-.3-3.1-.6-1.8-.7-1.8-1.3-.2-1 2.5-.9 4.6.2 4.6.5 0 1.1-.6 1.4-1.3m-4.3 8.7c.7.7 1 .2 1-1.7 0-3.1-.5-3.4-1.4-1-.4.9-.2 2.1.4 2.7m-25.9-93.5c.5-.8.9-2.4.9-3.7 0-3-1.8-2.8-2.6.2-.7 3.1.4 5.5 1.7 3.5m-12.1 73.8c0-2.6-.2-4.7-.4-4.7-.9 0-1.4 7.6-.6 8.4.7.7 1-.7 1-3.7m-5.3 21.7c.3-1.8.1-3.4-.5-3.8-1.3-.8-2.2.3-2.2 2.8 0 1.2-.7 3-1.5 4-.8 1.1-1.5 2.7-1.5 3.5 0 .9-.7 2.9-1.5 4.5-.8 1.5-1.5 3.4-1.5 4.1s-.7 1.8-1.5 2.5-1.5 2.3-1.5 3.6c0 1.2-.4 2.5-.9 2.9-.5.3-1.3 2-1.6 3.8-.7 3.1-3.5 9.6-9.6 22.2-1.6 3.3-2.9 6.5-2.9 7.1s-1.3 3.7-3 6.9c-1.6 3.2-3 6.9-3 8.2 0 3.6 2.8 2.8 4.7-1.5.9-2 2.9-6.3 4.4-9.5 1.6-3.1 2.9-6.6 2.9-7.7 0-1 .4-2.1.9-2.4 1.6-1 11.1-22.9 11.1-25.5 0-.9.7-2.9 1.5-4.5.8-1.5 1.5-3.5 1.5-4.3s.6-2.7 1.4-4.1c2-4 3.8-9.3 4.3-12.8m-1-21.7c.2-.9.2-2.5 0-3.5-.3-.9-.5-.1-.5 1.8s.2 2.7.5 1.7m-2.7 11.8c.5-.3 1-1.7 1-3.1 0-2.6-1.7-3.3-2.6-.9-.8 2 .3 4.8 1.6 4m-12.4-36.5c1 0 1.4-.7 1.2-2.2-.5-3.2-2.8-3.5-2.8-.4 0 1.7.5 2.6 1.6 2.6m.3 14.7c.6-.6 1.1-3.3 1.1-5.9 0-5.9-1.8-6.3-4.1-1s-6.8 23.6-7.2 29.7c-.3 2.8 1.7 3.1 2.1.3.2-1.3.9-2.9 1.5-3.7 1.2-1.4 3.1-7.4 4.6-14.4.5-2.1 1.4-4.4 2-5m-26.7 54.8q1.05-1.65 0-2.7c-.6-.6-1.2-.3-1.6.7-.9 2.4.5 4.1 1.6 2m-56.2 19.3c0-.4-.4-.8-.9-.8-1.4 0-2.3 1.8-1.3 2.4s2.2-.3 2.2-1.6m-14.5 13.1c1.3-1.3 2.5-3.2 2.5-4.2 0-1.7-1.1-2.2-2.3-1-.4.3-.7 1.5-.7 2.5s-.4 1.8-1 1.8c-.5 0-1 .7-1 1.6 0 1.3.5 1.1 2.5-.7m-37.6-58.7c.1-3.2-.3-3.9-1.3-2.3-.4.5-.2 2 .3 3.3.9 2.1 1 2.1 1-1m-2.8 9.7c.5-.8.9-2 .9-2.7 0-1.7-1.9-1.5-2.6.3-.8 2.1.6 4.1 1.7 2.4"/><path d="M292.86 238.08c-1.5.3-1.6-1-1.1-11.5.2-6.5.7-13.5 1.1-15.6l.6-3.8 4.2 3c2.4 1.7 4.6 3.1 5 3.1.3 0 1.5.8 2.6 1.7.27.26.66.49 1.14.68l-1.11 2.07c-1.9 0-2.93 2.85-6.03 8.25-2.1 3.7-4 7.9-4.3 9.3s-1.2 2.6-2.1 2.8M426.96 58.68c-.1 4.7-.6 7.8-1.5 9-1.7 2.2-2.1 13.9-.6 17.8 1.3 3.5 2.2 16.1 1.3 17.5-.6 1-1.5 1-4.1 0-2.9-1.1-3.4-1-4.7.7-1.9 2.6-1.8 3 1.1 5.7 1.3 1.3 2.5 3.1 2.5 4 0 2.5-8.8 11.8-12.8 13.4-4.5 2-5.5 1.9-4.7-.4.4-1.3-1.1-3.3-5.7-7.5-3.4-3.2-6.9-6.9-7.8-8.4-4-6.7-5.6-20.1-3.1-26.5 1.5-3.9 1.4-11-.3-17.1-2.7-9.7-4.6-18.4-4.6-21.1s.1-2.7 4.3-2.1c3.4.5 4.7.3 6.4-1.3 1.5-1.4 4.5-2.2 11.4-3 9.4-1.1 10.9-1.8 10.9-5.7 0-1.1.3-2.4.6-2.7.9-.9 2.4.2 2.4 1.7s2.9 8 6.5 14.5c2 3.6 2.5 5.8 2.5 11.5M404.66 247.58c1.1 2.1 1.2 3.2.5 3.9-1.3 1.3-3.9-.5-5.3-3.7-.5-1.1-1.3-2.7-1.8-3.5-1.5-2.7-3.2-8.4-3.7-12.5-.2-2.2-.7-5.9-1-8.2-.3-2.4-.2-4.8.2-5.4 1.3-2.1 3.4 2.2 3.4 6.8 0 2.3.6 5.7 1.4 7.5s2.2 5.3 3.1 7.8 2.4 5.8 3.2 7.3M391.86 140.48c4.7-7.2 5.7-5.7 4.1 6-.7 5.1-1.6 13.8-2 19.3-1.6 18.3-2.6 22.3-4.5 17.7-.4-.9-1-6.9-1.2-13.2-.3-7.4-1-12.3-1.9-13.7-1.7-2.6-1.8-5.9-.3-6.8.6-.4 1.4-1.4 1.7-2.4.4-.9 2.3-4 4.1-6.9" class="cls-1"/><path d="M389.36 116.88c8.4 8.5 8.1 7.6 4.3 12.6-4.1 5.3-14.7 20.7-14.7 21.3 0 .3-2.9 6.4-6.4 13.7-8.2 17.2-17.2 27.9-30.9 36.8-5 3.3-10.1 6-11.3 6-2.1 0-2.2-.4-2.1-7.8 0-5.5-.5-8.7-1.7-11.1-2.2-4.2-2.4-12.9-.4-17.9 2.1-5 3.9-12.5 4.8-19.3 1-7.5 2.9-12.7 6.2-17 1.6-2.1 3.8-6.8 5-10.7l2.2-6.9 5.1.1c4.8.1 5 0 5.3-2.7.2-1.9.9-2.7 2.3-2.7 2.2 0 8.9-4.7 8.9-6.2 0-1.9-7.5-7.9-10.7-8.6-4.4-.9-4.2-2.2.7-4.8 5.1-2.7 14.7-10.1 16.5-12.7 1.9-2.7.6-4.9-4.7-7.7-5.1-2.7-13.7-2.9-23.9-.6-14.1 3.1-53.9 2.8-64.9-.6-6.1-1.9-11.4-4.1-14.2-6.1-3.9-2.6-3.8-7.6.2-12.7 1.7-2.1 3-4.1 3-4.5 0-1.2 9.4-12.9 16-19.9 6-6.3 21.2-17.6 23.7-17.6.6 0 2.4-.6 4-1.4 5.2-2.6 11.8-4.3 14.8-4 1.7.2 6.8.8 11.4 1.4 9.4 1.3 13.5 2.9 20.4 7.9 5.1 3.8 5.6 5.1 3.1 7.2-.9.8-2.7 3-4 5-1.2 2-3.4 4.9-4.8 6.4s-2.8 3.7-3.2 4.9c-.3 1.1-1.2 2.8-1.9 3.6-1.7 2.1-2.6 6.3-1.6 7.9 1.3 2 7.1.6 12-2.9 2.2-1.7 4.5-3 5-3s1.2-.7 1.5-1.6c.3-.8 1-1.3 1.5-.9.6.3-.4 2.6-2.2 5.1l-3.2 4.5 2.5 1.9c3.3 2.6 5.2 2.5 8.4-.5 4.6-4.3 6.3-3.4 7.1 3.7.4 3.5 1.4 7.6 2.2 9.2 1.3 2.4 1.4 5.3.9 15.5-.9 16.3-.9 15.8-.1 21.1 1 6.9 3.5 12.1 7.9 16.6M393.06 198.28c.4 1.4.7 4.5.7 7s-.3 5.6-.7 7c-.7 2.3-.8 2.1-1.4-1.5-.9-5.2-.9-10.9 0-13.2.6-1.6.8-1.5 1.4.7M388.96 30.28c.8 1.5.7 2.1-.7 2.8-2.4 1.2-4.3.4-4.3-1.7 0-3.5 3.3-4.3 5-1.1" class="cls-1"/><path d="M376.96 37.28c.5 0 1 .4 1 1 0 2-9.7 10.3-10.5 9-.3-.6.1-1.3.9-1.6.9-.3 1.6-1.1 1.6-1.6 0-1.4 5.6-6.8 7-6.8M376.76 24.28c.3 1.5-8.7 9-10.8 9-1.7 0-1.2-.9 3.2-6.1 4.1-4.9 7-5.9 7.6-2.9M367.46 184.38c1.3-2.1 2.5-1 2.4 2.1-.1 1.8-.4 4.4-.8 5.8-.7 2.2-.9 1.9-1.6-2.2-.4-2.6-.4-5.1 0-5.7M363.96 226.58c-.1 2.9-.7 8.1-1.5 11.7s-1.4 7.9-1.5 9.6c0 1.8-.9 5.1-1.9 7.5-1.2 2.7-1.7 5.4-1.4 7.5.7 4-.3 8.4-1.8 8.4-1.4 0-.2-15 1.2-16.5.5-.5.9-3.9.9-7.5s.7-9.2 1.5-12.3c.8-3.2 1.5-7.1 1.5-8.7 0-1.5.3-3.5.6-4.4 1.1-3 2.4-.5 2.4 4.7M362.26 75.68c4.6 1.4-1.2 7.9-12 13.2-2.3 1.1-4.8 2.6-5.5 3.2-.8.6-4.7 1.2-8.8 1.4l-7.5.3-.3 3.2c-.3 2.9-.7 3.3-3.2 3.3-1.6 0-4.1.5-5.5 1.2-1.9.8-3.1.8-5.1-.1-2.2-1-3-.9-4.5.5-1.8 1.6-1.8 1.9-.3 3.5.8.9 2.6 2 4 2.3 3.3.9 3 2-1.3 4.6-3.1 1.8-4.3 2-6.8 1.2-1.6-.6-5.2-1.3-8-1.7-2.7-.4-6.6-1.4-8.5-2.2-4.8-2-23-1.9-29 .2-5.9 2.1-12.8 5.4-13.6 6.6-.8 1.4-4 1.1-5.4-.6-1.6-1.9-4.3-1.9-7.9 0-2.6 1.3-3 1.3-4.1 0-.7-.8-2.2-1.5-3.5-1.5-1.2 0-2.5-.3-2.9-.7-.4-.5-2.6-1.2-4.8-1.8-3.7-.9-4.2-1.4-5.4-5.5-.8-2.5-1.3-5.2-1.3-6 .3-3.2-.2-3.8-3.6-4.3-4.9-.8-11.5-5.6-11.5-8.4 0-2.3-3.3-4.8-5-3.8-.6.3-1 2-1 3.7 0 3.7-5 8.8-8.7 8.8-2.9 0-6.9 4-10.8 10.8-1.5 2.6-3.7 5.7-4.8 7-2.7 2.9-16 9.2-19.5 9.2-4.2 0-7.2-2.6-7.2-6.1 0-2.8.2-3 2.8-2.5 1.6.4 3.5.1 4.6-.7 1.5-1.1 1.7-1.7.7-3.5-.6-1.2-2.5-2.5-4.1-2.9l-3-.8 3.9-8c6.1-12.6 16.1-36.8 16.1-39 .1-1.1.7-2.9 1.5-3.9 1-1.3 1.5-4.3 1.5-8.7 0-7.6 1.2-9.4 3.4-5.1 1.6 3.1 4.1 4.6 5.8 3.6.5-.3 4.6-.7 9.1-.8l8.2-.1.3-3c.6-6.7 2.4-7.3 4.9-1.8.9 2.1 2.5 5.6 3.5 7.9 2.4 5.4 2.3 5.9-1.7 12-4.1 6.1-4.6 9.7-1.4 9.2 1.2-.2 2.6-1.1 3-2.1.5-.9 1.4-2.5 1.9-3.5.6-.9 1.4-2.7 2-4 .5-1.2 1.4-2.2 1.9-2.2 2.1 0 2.2 2.3.2 6.1-2.6 5-2.7 8.5-.2 9.9 1.1.5 2.2 1 2.4 1 .6 0 7.7-11.6 7.7-12.7.1-1 5-4.7 5-3.6 0 .4-.7 2.8-1.6 5.2-2.9 8.5.5 9.8 4.3 1.5 1.3-3 3-5.3 3.6-5.1 1.6.6 1.1 5.6-.8 7.7-1.6 1.7-2.1 7-.7 7 1.5 0 4.8-4.4 7.1-9.3l2.3-4.7h6.6c5 0 7.5.5 9.7 2 1.7 1.1 3.9 2 5.1 2 1.1 0 3.4 1.1 5.2 2.3 1.7 1.3 5.1 3.2 7.4 4.1 2.4 1 5.8 2.4 7.6 3.2s5.4 1.4 8 1.4c2.6.1 7.6.7 11.2 1.5 7.5 1.7 24 1.8 35.5.4 4.4-.6 10.9-1.3 14.5-1.6s6.9-.9 7.5-1.4c1.2-1.2 5.1-1.2 7.3 0 .9.5 2.5 1.2 3.5 1.5M352.36 102.88c2.7 1 .7 2.4-3.4 2.4-4.4 0-7-.8-7-2.1 0-1 8-1.2 10.4-.3M345.46 113.28c0 1.1-1 1.4-4 1.1-4.7-.4-5.8-.9-4.9-2.2 1-1.6 8.9-.6 8.9 1.1M324.56 138.28c2.5 0 2.6.2 2.1 4.2-.3 2.4-1.1 6.5-1.7 9.3-.6 2.7-1.6 7.7-2.1 10.9-.6 3.3-2 7.6-3 9.5-2.3 4.2-2.4 9.5-.5 13.3 1.3 2.5 1.3 2.9-.3 4-4.6 3.4-4.6 8.5 0 9.5 2.7.5 2.9.9 2.9 4.9 0 3.3-.5 4.6-2.2 5.8-2.6 1.8-10 2.1-13 .5-5.5-2.9-11.8-9.8-11.8-12.7 0-1.3-.7-4-1.6-6-5.6-13.2-6.5-15.7-7.5-22.7-.5-3.3-1.3-7.3-1.9-8.8-.5-1.5-.8-3.3-.6-4s1-4.6 1.6-8.7c.7-4.1 1.9-8.5 2.6-9.7.8-1.2 1.4-2.7 1.4-3.3 0-1.4 8.6-12.7 10.5-13.7 2.3-1.3 16.5-1 16.5.4 0 .7.9 1.7 2.1 2.3 1.1.7 1.8 1.4 1.4 1.8-1 1-9.9 4.2-11.7 4.2-2.2 0-3.3 1.9-2 3.2.8.8.6 2-.4 4.1-1.5 2.8-1.5 3.1.5 5 1.7 1.7 2.4 1.9 4.3.9 3.9-1.9 11.7-4.2 14.4-4.2" class="cls-1"/><path d="M285.46 113.78c7.1 2.1 8.3 3.6 5.9 7.2-2.5 3.8-4.2 6.5-5 8.3-.4.8-1.2 2.2-1.9 3-1.7 2.2-4.3 11.6-5.1 18.5-.3 3.3-1 6.4-1.4 7-.4.5-1.4 3.3-2.3 6-1.8 5.8-8.5 16.5-10.3 16.5-.7 0-4.1 1.9-7.6 4.2-7.4 5-9 6-14.3 8.6-5.4 2.6-18.9 5.6-22 4.8-1.3-.3-3.3-.1-4.3.5-1.6 1-2.3.8-4.1-1-2.3-2.3-8.5-2.9-9.8-.9-.4.7-1.1 3.3-1.5 5.8-1.3 8.2-3.6 18.4-4.8 22-3 8.3-4.5 11.9-7.7 18.5-4.1 8.2-5.5 10.8-7 12.6-.6.8-1.3 2.5-1.5 3.8-.1 1.4-.9 2.6-1.5 2.9-1.8.5-1.6-5.6.2-8.8.8-1.4 1.4-3.5 1.5-4.7 0-1.2.6-3.4 1.4-5 1.8-3.7 3.6-8.9 4.6-13.3.4-1.9 1.9-5.8 3.3-8.5 1.4-2.8 3.9-9.4 5.6-14.7 2.6-8 3.2-11.8 3.6-21.5.2-6.5.5-13.6.7-15.8.3-3.7.1-4-2.5-4.3-2.3-.3-3.6.5-6.2 3.5-1.9 2.1-3.7 5.4-4.1 7.3s-2 5.1-3.6 7-5.1 6.6-7.7 10.3c-4.2 5.9-10.1 10.7-13.3 10.7-1.3 0-6.5-5.6-7.2-7.7-.4-1.1.4-3.9 1.9-6.9 1.4-2.7 2.5-5.9 2.5-7.2s.4-3.1 1-4.1c.5-1 1.4-4.6 1.9-7.9.5-3.4 1.6-7.4 2.3-8.9 1.2-2.4 1.9-2.8 5-2.5 3.3.3 3.8 0 4.4-2.2.9-3.7-.1-5.6-3.6-6.2-1.6-.4-3-.9-3-1.3 0-1 6.2-9.3 10.7-14.5 4.1-4.6 4.4-4.8 7.4-3.7 5.7 2 7.5 1.4 11-3.4 1.7-2.4 3.6-4.2 4.2-3.8 1.1.7.3 8.6-1.9 17-1.9 7.1-1.4 9.3 2 9.3 1.8 0 2.9-1 4.5-4 1.2-2.2 2.1-4.7 2.1-5.6 0-2 4.1-7.5 5.2-6.8 1.2.8 1 3.4-.6 4.9-2 2.1-3.1 10.6-1.5 11.6 2 1.2 3.9-.9 4-4.5l.2-3.1.6 3.5c.7 4.1 3.5 5.3 4.5 1.8.6-2.1.7-2.2 2-.6.7 1 1.8 1.8 2.3 1.8 2.1 0 4.2-3.7 4.5-7.9.5-6.8 2.6-6.4 3 .6.2 3.2.7 5.8 1.3 5.8 1.5 0 3.6-5.1 4.5-11.3 1.5-10.2 2.6-12 9.4-15.4 15.9-8.3 27.3-10.4 38.1-7.3M284.46 184.58c1.9 3.6 1.9 4.6-.1 6.8-.9 1-2.4 5-3.5 8.9-1 3.9-2.1 7.5-2.4 8.1-.4.5-1.1 3.7-1.5 7.1-.5 3.4-1.3 6.4-1.7 6.7-.5.3-1.4 1.7-2 3.1l-1.2 2.5v-2.8c-.1-1.5.3-2.7.8-2.7 1 0 .8-22.8-.4-33.7-.7-6.8-.6-7.3 2.4-12.7 1.8-3.1 3.6-5.6 4.1-5.6s1.6 2.6 2.4 5.7c.9 3.2 2.3 7.1 3.1 8.6M266.26 185.48c.6.3 1.2 1.1 1.2 1.8s-.6 1.5-1.2 1.7c-.8.3-1.3-.4-1.3-1.7s.5-2 1.3-1.8M262.56 191.78c1-2.5 2.5.5 1.7 3.3-.3 1.2-.9 2.2-1.4 2.2-.09 0-.18.08-.27.22l-1.3-.24c.4-.66.67-1.42.67-1.98 0-1 .3-2.6.6-3.5" class="cls-1"/><path d="m261.29 197.26 1.3.24c-.37.62-.63 2.49-.63 4.68 0 3-.5 5.3-1.4 6.1-.8.6-1.6 2.3-1.8 3.7-.2 1.5-.9 2.8-1.5 3.1-1.8.5-1.6-6.8.2-9.2.8-1.1 1.5-3 1.5-4.2s.7-2.7 1.5-3.4c.3-.26.59-.62.83-1.02M254.96 220.88c.4 1 .5 2.5.3 3.1-.3.7-.9 1.3-1.4 1.3-1.1 0-1.2-2.1-.2-4.6.6-1.6.7-1.6 1.3.2M252.56 196.78c.4.8-.1 2.6-.9 3.8-.8 1.3-1.7 3.4-1.9 4.7-.4 2.8-2.8 4-2.8 1.3s3.2-11.3 4.2-11.3c.5 0 1.1.7 1.4 1.5M251.96 230.98c0 1.9-.3 2.4-1 1.7-.6-.6-.8-1.8-.4-2.7.9-2.4 1.4-2.1 1.4 1M244.56 211.88c1.1-2.8 2.4-1.7 2.4 1.8 0 4.2-.9 6.8-2.1 6-1-.6-1.2-5.4-.3-7.8M233.76 132.58c.2 1 .1 2.1-.2 2.4-1.1 1.1-1.7-.4-.9-2.3.7-1.8.8-1.8 1.1-.1M225.96 135.48c0 1.3-.4 2.9-.9 3.7-1.3 2-2.4-.4-1.7-3.5.8-3 2.6-3.2 2.6-.2M212.56 208.28c.2 0 .4 2.1.4 4.7 0 3-.3 4.4-1 3.7-.8-.8-.3-8.4.6-8.4M207.16 230.88c.6.4.8 2 .5 3.8-.5 3.5-2.3 8.8-4.3 12.8-.8 1.4-1.4 3.3-1.4 4.1s-.7 2.8-1.5 4.3c-.8 1.6-1.5 3.6-1.5 4.5 0 2.6-9.5 24.5-11.1 25.5-.5.3-.9 1.4-.9 2.4 0 1.1-1.3 4.6-2.9 7.7-1.5 3.2-3.5 7.5-4.4 9.5-1.9 4.3-4.7 5.1-4.7 1.5 0-1.3 1.4-5 3-8.2 1.7-3.2 3-6.3 3-6.9s1.3-3.8 2.9-7.1c6.1-12.6 8.9-19.1 9.6-22.2.3-1.8 1.1-3.5 1.6-3.8.5-.4.9-1.7.9-2.9 0-1.3.7-2.9 1.5-3.6s1.5-1.8 1.5-2.5.7-2.6 1.5-4.1c.8-1.6 1.5-3.6 1.5-4.5 0-.8.7-2.4 1.5-3.5.8-1 1.5-2.8 1.5-4 0-2.5.9-3.6 2.2-2.8M206.66 209.48c.2 1 .2 2.6 0 3.5-.3 1-.5.2-.5-1.7s.2-2.7.5-1.8M204.96 221.68c0 1.4-.5 2.8-1 3.1-1.3.8-2.4-2-1.6-4 .9-2.4 2.6-1.7 2.6.9M192.76 186.08c.2 1.5-.2 2.2-1.2 2.2-1.1 0-1.6-.9-1.6-2.6 0-3.1 2.3-2.8 2.8.4M192.96 197.08c0 2.6-.5 5.3-1.1 5.9s-1.5 2.9-2 5c-1.5 7-3.4 13-4.6 14.4-.6.8-1.3 2.4-1.5 3.7-.4 2.8-2.4 2.5-2.1-.3.4-6.1 4.9-24.4 7.2-29.7s4.1-4.9 4.1 1M170.56 240.28c1.1 0 1.4.8 1.2 2.7-.4 3.9-2.8 4.2-2.8.4 0-2.1.5-3.1 1.6-3.1M166.56 248.88c.7-1.9 2.4-2.1 2.4-.4 0 .7-.4 1.9-.9 2.7-1.1 1.7-2.3-.1-1.5-2.3M165.16 255.08q1.05 1.05 0 2.7c-1.1 2.1-2.5.4-1.6-2 .4-1 1-1.3 1.6-.7M161.46 139.68c4.4 1.5 5.5 3.6 3 5.6-.8.7-1.5 1.8-1.5 2.5s-.7 1.8-1.5 2.5c-.9.7-1.5 2.9-1.5 5.2 0 4.7-2.4 15.7-5.6 25.6-2.9 9.1-3.5 10.1-6.5 11.5-2.1 1.1-2.5 2.1-3 8.7-.9 10.2-2.8 16.3-9 29.5-1.6 3.3-2.9 6.6-2.9 7.3s-1.3 4-2.9 7.5c-4.7 10.4-6.1 13.7-6.1 15.1 0 .8-.6 1.9-1.4 2.6-.8.6-1.6 2.1-1.8 3.2-.2 1.2-.9 2.3-1.5 2.6-1.5.4-1.8-5.4-.4-6.3.5-.3 1.3-2 1.6-3.8.7-3 1.3-4.4 5-11.6.8-1.6 1.5-3.6 1.5-4.5 0-.8.7-3.2 1.6-5.3 2-4.5 2.6-6 5.4-13.3 1.2-3 2.7-6.6 3.2-8 .6-1.4 1.4-4.1 1.9-6 .4-1.9 1.1-4.7 1.5-6.3.7-2.8-.5-5.1-3.6-6.7-2.8-1.5-4.1.5-6 9.6-1 4.9-2.3 10.5-3 12.4s-1.5 3.9-1.6 4.5c-.2.5-.8 1.7-1.3 2.5-2.2 3.4-7.1 14.8-7.1 16.3 0 .9-.4 1.8-.9 2.2-.6.3-2.1 3-3.5 6-1.4 2.9-3.1 5.7-3.6 6-.6.3-1 1.9-1 3.4 0 1.6-.7 3.4-1.5 4.1-1.3 1.1-1.5.7-1.5-2.8 0-2.3.6-4.5 1.5-5.2.8-.7 1.5-2 1.5-2.9 0-1 .7-2.6 1.5-3.7.8-1 1.5-2.8 1.5-4 0-1.1.7-2.9 1.5-4 .8-1 1.5-2.7 1.5-3.6s.7-2.9 1.5-4.5c7.1-13.8 10.5-22.5 10.5-27.2 0-6.6-1.6-8.1-8.5-8.1-3 0-6.6.5-8.2 1.1-4.9 1.9-21.8 2-26.7.2-6.7-2.5-7.6-1.7-7.6 7.1 0 7.7-.6 10.6-2.1 10.6-.5 0-.9-4.2-.9-9.4 0-7.4-.4-9.8-1.6-11.1-2.4-2.3-3.8-1.4-4.5 3.1-.3 2.1-1.1 5.2-1.8 6.7-.6 1.6-1.1 4.4-1.1 6.4s-.6 4.7-1.4 6.1c-.8 1.5-1.7 3.5-2 4.5s-1 1.5-1.6 1.2c-1.3-.8-1.3-8.5-.1-8.5.6 0 1.2-2.1 1.6-4.8.3-2.6 1.2-6.9 2-9.6 1.9-6.1 1.9-15.3 0-18.6-.8-1.4-1.4-3.5-1.5-4.6 0-3.2-3.8-11.1-5.6-11.8-2.6-1-8.1-.7-11.1.6-1.5.7-5.3 3.1-8.3 5.3-11.8 8.8-24.3 16.6-26.3 16.3-3-.5-6.1-5.1-5.3-8.2.6-2.5.7-2.5 3.5-.8 2.4 1.3 3.4 1.4 5.5.4 3.6-1.6 3.3-4.5-.9-8l-3.5-2.9 3.7-4.9c2.1-2.7 8.6-9.7 14.5-15.7 6.4-6.3 11-11.9 11.4-13.5 1-4.1 2.3-5.3 4.4-4.2 3.2 1.7 7.8 1.2 9-1 1.1-2.1 4-2.8 4-.9 0 .7-.9 2.6-1.9 4.3-2.4 3.9-3.7 12.1-2.1 13.1.6.4 1.9 0 2.9-.9 1.6-1.5 1.9-1.5 3.1-.1.7.8 2.1 1.5 3.1 1.5 1.4 0 1.9.7 1.9 2.5s.5 2.5 1.9 2.5c1 0 2.1-.7 2.5-1.5.3-.8 1-1.5 1.6-1.5 1.5 0 1.2 2.7-.6 5.5-.9 1.3-1.3 2.9-.9 3.5 1 1.6 4.5 1.2 5.1-.8 1.2-3.8 3.4-6.7 5.1-6.7 1.4 0 1.8.8 1.8 3.5 0 2.9.4 3.6 2.2 3.8 1.7.3 2.4-.3 2.9-2.5 1.5-6 5.8-9.7 13.4-11.3 1.9-.5 6.5-1.9 10.1-3.3 6.3-2.4 7.8-2.5 28-2.6 16.1-.1 22.4.2 25.4 1.3M108.06 276.28c.5 0 .9.4.9.8 0 1.3-1.2 2.2-2.2 1.6s-.1-2.4 1.3-2.4M103.36 269.18c.6-3 2.6-4.1 2.6-1.4 0 2-4 9.5-5.1 9.5-1.5 0-1-4 .5-4.6.8-.3 1.6-1.8 2-3.5M102.26 288.18c.8.8.8 1.4-.1 2.3-1.5 1.5-2.4.6-1.6-1.6.5-1.2 1-1.4 1.7-.7M98.96 293.28c.5 0 1 .6 1 1.4 0 1.6-1.8 3.1-2.7 2.2-.8-.8.5-3.6 1.7-3.6M96.96 285.98c0 1-1.2 2.9-2.5 4.2-2 1.8-2.5 2-2.5.7 0-.9.5-1.6 1-1.6.6 0 1-.8 1-1.8s.3-2.2.7-2.5c1.2-1.2 2.3-.7 2.3 1M55.56 229.18c1-1.6 1.4-.9 1.3 2.3 0 3.1-.1 3.1-1 1-.5-1.3-.7-2.8-.3-3.3M54.96 238.48c0 .7-.4 1.9-.9 2.7-1.1 1.7-2.5-.3-1.7-2.4.7-1.8 2.6-2 2.6-.3" class="cls-1"/><path d="M410.66 60.08c-2.2 2.4-2.1 3.5.2 5.6 3 2.7 6.5 1.7 6.9-1.9.6-4.8-4-7.1-7.1-3.7M393.96 63.18c-1.6 3.1-1.2 4.9 1.5 6.7 2.4 1.6 2.7 1.6 4.5-.1 1.1-1 2-2.7 2-3.7 0-4.4-6-6.5-8-2.9M396.96 107.38c-1.4 2.6 1.1 6.9 4 6.9 3.1 0 4.5-3.6 2.5-6.6-1.9-2.9-5-3.1-6.5-.3M167.16 67.48c-1.7 1.7-1.5 6.7.3 7.4.8.4 2.6.3 4 0 2.9-.7 4.4-4.9 2.5-7.1-1.5-1.8-5.1-2-6.8-.3M156.36 106.08c-3.4 2.3-1.2 8.2 3 8.2 3.6 0 4.9-4.6 2-7.4-1.7-1.7-3.3-2-5-.8M180.66 154.38c-1.4 1.9-1.4 2.5-.1 5 1.7 3.4 4.8 3.8 6.4.9 1.1-2 .4-7-1-7-.5 0-1.5-.3-2.3-.6-.9-.3-2.1.4-3 1.7M165.46 188.28c-1.5 1.7-1.6 2.4-.5 5 1.4 3.3 3.9 3.9 6.4 1.4 2.2-2.2 2-5-.6-6.8-2.9-2-3.1-2-5.3.4M311.96 146.58c-1.7 1.8-1.8 2.3-.6 4.1 1.7 2.6 6.4 3.4 7.2 1.2 2-5.1-3.1-9.1-6.6-5.3M295.66 147.98c-1.5 1.4-.7 6.3 1.2 7.3 3.8 2 7.6-1.6 6-5.8-.6-1.6-1.6-2.2-3.7-2.2-1.6 0-3.2.3-3.5.7M303.16 195.88c-2.8 2-2.8 3.5.2 6.3 2 1.9 2.8 2.1 4.5 1.2 2.8-1.5 2.9-6.6.2-8.1-2.5-1.3-2.2-1.3-4.9.6M33.76 149.78c-1.4 3.1-.2 5.8 2.9 6.3 2.6.4 5.5-3.1 5.1-6-.2-1.8-1-2.4-3.5-2.6-2.7-.3-3.5.1-4.5 2.3"/></svg>