<svg xmlns="http://www.w3.org/2000/svg" width="840" height="452" version="1.0" viewBox="0 0 630 339"><path d="M418.6 14.5c-1.1.8-2.8 1.5-3.7 1.5-1 0-3 .7-4.6 1.4-1.5.8-3.5 1.7-4.3 2-2.9 1.1-14.6 9.9-20.5 15.5-6.6 6.2-9.1 9.3-16.2 19.4-2.7 3.8-6.2 8.8-7.9 11l-3 4.2-7 .1q-6.9.15-9.6-1.5c-3.1-1.7-3.3-2.3-1.6-5 .6-1 .8-2.6.4-3.6-.6-1.7-.8-1.6-3.1.5-1.3 1.2-2.5 3.2-2.7 4.4-.5 3.7-3.3 2.5-3.3-1.4 0-1.9-.9-4.7-1.8-6.2-1.5-2.2-2.4-2.6-5-2.1-2.5.4-3.7-.1-5.6-2.1-1.4-1.4-2.9-2.6-3.4-2.6-1.1 0-4.6 4.1-4.7 5.6 0 .6-1.1 2.1-2.4 3.3l-2.4 2.2-1.6-3.2c-.9-1.8-1.6-3.7-1.6-4.3s-.9-2.8-2-4.9c-1.1-2-2-4.3-2-5 0-1.6-3.2-4.7-4.7-4.7-.6 0-2.1 2.1-3.3 4.7-1.2 2.7-2.5 5.5-2.9 6.3-1 1.8-11.5 3.4-14 2.1-.9-.5-2.5-3-3.6-5.5-1.5-3.5-2.5-4.6-4.2-4.6-1.6 0-2.4.7-2.7 2.2-.2 1.3-.9 4.5-1.5 7.3-.6 2.7-1.3 7.5-1.5 10.5-.1 3-1 6.8-1.8 8.5-.9 1.6-1.9 4.6-2.3 6.5s-1.1 4.1-1.5 5c-.8 1.8-3.7 8.3-5.5 12.5-2.2 5.2-6.4 13.8-10 20.4-6.5 11.8-4.1 22.1 5.7 24.9 4 1.1 5.5 1.1 10.2-.3 3-.9 7.1-2.7 9.1-4.1 2-1.3 4-2.4 4.5-2.4.6 0 1-.4 1-.8 0-.5 1.1-1.4 2.5-2s2.5-1.7 2.5-2.4c0-1.7 3.8-8.7 5.8-10.7.8-.9 4.9-3.3 9-5.3 6.3-3.1 7.8-3.5 9.8-2.6 1.3.6 2.4 1.5 2.4 2 0 .4.6.8 1.3.8 3 0 6.5 4.5 7.2 9.1l.7 4.6-4.5 2.2c-2.4 1.2-6.5 4.2-8.9 6.7-5.5 5.6-7.8 5.3-7.8-1.1 0-2.6-.6-5-1.6-5.9-3.1-3.2-4.5-1.6-6.8 7.3-.8 3.6-1.9 6.7-2.3 7-.5.3-1.9 2.3-3.3 4.4-2.2 3.4-2.8 3.7-5.5 3.2-1.6-.3-6.4-1.2-10.5-2-4.1-.7-9.1-1.6-11-2s-8.6 0-14.8.9-13.8 1.6-17 1.6c-3.1.1-6.8.7-8.2 1.5-3.2 1.8-9 2-9 .2 0-.7.9-2 2-3 2.4-2 2.6-3.6.4-4.4-1.6-.6-2.8.5-8.4 7.7-3.9 5.1-6 6.9-7.7 7-2.1 0-1.5-1.5 1.7-4.6 3-2.9 3.8-5.8 2-6.9-.9-.6-6.8 3-8.2 5-.5.6-1.1.6-1.8-.1-.8-.8-.7-1.4.5-2.4 3.5-2.9-.1-9.9-4.4-8.7-1.4.3-2.2-.1-2.6-1.4-.7-2.1-3.9-3.4-7.7-3-2.1.2-3-.3-3.9-2.3-.9-1.8-2-2.6-3.8-2.6-2.1 0-2.9.8-4.5 4.6-1.5 3.6-2.3 4.4-4 4.2s-2.1-1-2.1-4.3-.4-4.1-2.1-4.3c-3.3-.5-6.4 4.7-8.3 14-1 4.7-4.4 9.2-14.6 19.3-8.7 8.7-13.9 16-17.4 24.4-2.6 6.1-2.4 10.5.6 14.5 1.5 2.1 2.7 2.5 6.6 2.6 4.1 0 6-.8 14-5.9 5.1-3.3 9.9-6.7 10.8-7.5.9-.9 2.1-1.6 2.7-1.6.5 0 1.2-.3 1.4-.8.2-.4 1.8-1.7 3.6-3 2.4-1.7 4.4-2.2 7.5-2 4.1.3 4.2.4 6 5.8 1.7 5.3 3.9 14.4 3.9 16.5 0 .5-.5 4.4-1.2 8.5-.6 4.1-1.5 10.3-2 13.8-.4 3.4-1.5 7.4-2.4 8.7s-1.6 3.7-1.6 5.3-.7 3.5-1.5 4.2-1.5 2-1.6 2.9c0 .9-1.8 4.7-3.9 8.6-2.2 3.8-4.5 8.2-5.1 9.7-.6 1.6-1.5 2.8-2 2.8s-.9.8-.9 1.9c0 1-.7 2.4-1.5 3.1s-1.5 1.8-1.5 2.5-.7 1.8-1.5 2.5-1.5 1.9-1.5 2.7c0 1.3-3.1 6.2-5.7 9.1-.7.7-1.3 1.6-1.3 2s-1.8 2.7-4 5.2c-4.7 5.3-5.6 7.6-4 9.5 1.5 1.8 8.1 2 10.1.3 3.3-2.8 13.9-19.8 13.9-22.4 0-.7.3-1.4.8-1.6 1.3-.6 5.2-6.7 5.2-8.3 0-.9.6-1.8 1.4-2.1s1.6-1.4 1.9-2.5c.3-1 1-1.9 1.6-1.9 1.7 0 1.3 3-.4 3.6-.8.4-1.5 1.6-1.5 2.8 0 2.3-8.1 18.9-10.6 21.7-.8.8-1.4 2-1.4 2.6s-.7 1.6-1.5 2.3-1.5 1.9-1.5 2.8c0 .8-.8 2.4-1.7 3.4-2.6 2.8-.4 4.1 5.4 3.3l5-.6 4.5-9.2c6.8-13.9 10.8-22.6 10.8-23.5 0-.5 2.7-6.1 5.9-12.5 3.3-6.5 6.2-13 6.6-14.7.4-1.6 1.1-3 1.6-3s.9-.7.9-1.6.6-2.8 1.4-4.2c1.7-3.4 3.5-8.6 4.7-13.7.6-2.1 1.5-4.5 2-5.2.6-.7.8-1.6.5-2.2-.3-.5-.3-1.9.2-3 .7-2 1.6-2.1 16.1-2.5 9.1-.3 15.8-.9 16.4-1.5 2.9-2.9 8.6-.1 8.7 4.2 0 1.7-.2 2.4-3.3 8.5-.9 1.9-1.7 4.5-1.7 5.8 0 1.4-.7 2.7-1.5 3-.8.4-1.5 1.1-1.5 1.6 0 .6-.6 2.4-1.4 4.1-.7 1.8-2.1 5.2-3.1 7.7-.9 2.5-2.4 6.1-3.2 8s-2.2 5.1-3 7-2.1 4.8-2.9 6.3c-.8 1.6-1.4 3.7-1.4 4.7 0 1.8-2.2 7.8-4.1 11-.5.8-1.4 2.6-2 4-.5 1.3-1.3 2.7-1.7 3s-1.3 1.6-1.9 3c-3 6.2-6.3 11.3-8.7 13.5-1.5 1.4-2.6 3.5-2.6 5 0 2.3.3 2.5 4.9 2.5 4.4 0 5.2-.4 8.5-4 2-2.2 3.8-4 4-4 .3 0 .1 1.2-.3 2.7-1.2 4.1-.3 5.3 3.5 5.3 4.3 0 7.4-3 10.9-10.9 1.4-3.1 3-6.4 3.6-7.4s2-3.7 3.1-6c1.2-2.3 3.1-5.5 4.2-7.1 2.4-3.6 5.6-9.7 5.6-10.9 0-.4.9-2.9 2.1-5.5 1.1-2.6 2.4-5.6 2.8-6.7.5-1.1 2.3-5 4-8.7s3.1-7.1 3.1-7.4c0-.4 1.3-3.5 2.9-6.8 3-6.4 5.4-13.4 6.8-20 1.1-5.5 3.5-6.7 6.8-3.6 2.1 2 3.7 2.5 8 2.5 2.9 0 5.6.3 5.9.6 1.1 1.1-4.2 24.4-7 30.9-3.6 8.3-7 13.2-15.2 21.6-.7.8-1.2 2.4-1 3.6.2 1.7 1.4 2.5 5.2 3.4 5.6 1.4 8.6.5 8.6-2.6 0-1 .3-2.6.6-3.4.5-1.4 1-1.3 3 .9 1.3 1.4 3.2 2.5 4.2 2.5 3 0 4.9 2.8 3.4 4.8-.7 1-1.5 2.4-1.8 3.2-1.4 3.6-3.4 7.9-6.3 14-1.7 3.6-3.1 7-3.1 7.6s-1.3 2.9-3 5.2c-4.3 6-4.7 8.7-1.6 10.7 4.4 2.9 6.5 1.7 10.4-6 3.4-6.8 5.2-10.9 7.8-17 1.5-3.6 7.1-15.9 9-19.8.8-1.6 1.4-3.7 1.4-4.7 0-.9.7-2.3 1.5-3s1.5-1.8 1.5-2.6c0-1.8 4-8.4 5.1-8.4 1.2 0 1.2 4.7-.1 5.5-.5.3-1.4 2-1.9 3.8-1.8 5.8-4 11.3-7.6 19.3-2 4.4-4.6 9.9-5.7 12.4s-2.6 5.7-3.4 7.2c-.8 1.4-1.4 3.2-1.4 4s-1.3 2.9-3 4.8c-1.6 1.9-2.9 4-3 4.6 0 .7 2.5 1.4 6.3 1.7 7.4.6 10.8-1.2 11.8-6.2.4-1.8 1.2-3.8 1.8-4.4s1.1-1.9 1.1-2.8c0-1 .6-2.4 1.3-3.1 1.4-1.6 4.5-8.1 9.1-19.3.7-1.7 2-4.6 2.8-6.5 1.6-3.6 3.5-8.8 6.2-17.7.9-2.8 2.1-6.4 2.7-8 3.1-7.5 4.8-13.1 4.9-15.8 0-1.7.7-4.3 1.5-5.9.8-1.5 1.5-3.5 1.5-4.3 0-2.8 4.2-15.3 5.3-16 .7-.4 4.1-1.1 7.7-1.5s8-1 9.8-1.4c3.1-.6 3.2-.5 3.2 2.4 0 1.7-.4 3.4-1 3.7-.5.3-1 2-1 3.6s-.7 4.6-1.5 6.6c-.8 1.9-1.5 4.4-1.5 5.3 0 1-.7 3.1-1.5 4.7-.8 1.5-2.4 4.8-3.5 7.3-2.9 6.2-6.7 13-8.6 15.1-.9 1-1.4 2.8-1.2 4.1.3 2 .9 2.3 5.6 2.6 4.3.3 5.3 0 5.8-1.5.3-1 1-2.5 1.5-3.3s1.4-2.5 1.9-3.8c1.1-2.7 3-2.1 3 .9 0 1.9.4 2 4.3 1.4 6.4-1.1 7.2-1.9 9.1-8.7.9-3.5 2.8-9.7 4.2-13.8s3.7-11 5.1-15.3c1.8-5.5 2.9-7.5 3.6-6.8 1.3 1.3 1.1 36.2-.3 41-.5 1.9-1.2 6.8-1.6 11-.3 4.2-1.2 9.8-1.9 12.6-.7 2.7-1.6 7.6-2 10.7-.3 3.2-1.1 6-1.6 6.3-.5.4-.9 1.6-.9 2.8 0 2.9-3.3 12.4-4.9 14-1.4 1.4-1.4 4 .1 5.5 1.7 1.7 7.8 1.6 7.8-.2 0-.8.5-2.7 1.2-4.3 1.9-4.5 3.8-14.1 4.7-23.8.5-5 1.4-11 1.9-13.5.6-2.5 1.6-7 2.2-10s1.8-8.4 2.6-12 1.9-8.4 2.4-10.8 1.2-4.7 1.5-5.3c.9-1.3 3.7-11.8 4.5-16.9 1.1-6 3.5-12.2 4.6-11.8 1.3.4 1.4 16.9.2 26.3-.6 4.4-1.2 11.1-1.5 14.9s-1.1 7.9-1.8 9c-.7 1.2-1.5 5.2-1.8 9.1-.4 3.8-1 8.3-1.6 10-3.5 11.2-4.1 13.5-4.1 15.2 0 3.1-3.7 16.4-4.9 17.6-.6.6-1.1 2.3-1.1 3.7s-.7 3.5-1.5 4.6c-.8 1-1.5 3.4-1.5 5.1 0 3.2.1 3.3 4.4 3.3h4.5l.7-4.5c.3-2.5 1-4.8 1.5-5.1s.9-2 .9-3.7c0-1.8.7-5.4 1.5-8.1s1.5-6.5 1.5-8.5c0-3.5 1.8-10.3 4.6-16.9.8-1.8 1.4-4 1.4-4.8 0-.9.7-3.2 1.6-5.2.9-2.1 2.2-5.2 3-7s1.4-4.2 1.4-5.3c0-2.1 1.7-6.6 4.6-12.2.8-1.6 1.4-3.4 1.4-4.1s1.6-3.5 3.5-6.2c4.1-5.8 4.4-7.4 1-7.4-1.9 0-3.1 1.3-6.2 6.7-2.1 3.7-4 7.9-4.3 9.3s-1.2 2.6-2.1 2.8c-1.5.3-1.6-1-1.1-11.5.2-6.5.7-13.5 1.1-15.6l.6-3.8 4.2 3c2.4 1.7 4.6 3.1 5 3.1.3 0 1.5.8 2.6 1.7 2.3 2.2 12.9 2 16.1-.3 1.1-.8 3.6-1.4 5.6-1.5 1.9 0 5.1-1 7.2-2.2 12.3-7.4 18.2-11.4 21.6-14.8 2.2-2.1 4.2-3.6 4.6-3.2 1.1 1.2.6 11.8-.9 15.8-.8 2.2-1.4 5.5-1.5 7.4 0 1.8-.6 6.3-1.4 10-2.3 10.5-4.5 24.1-5.1 30.7-.3 3.4-1 7.7-1.5 9.5-.6 1.9-1 6.7-1 10.8v7.4l3.1-.7c1.7-.3 3.5-.6 4-.6 1.4 0 4.6-7.9 5.9-14.5 3.1-16.3 4.9-29.2 7-51.5 1-10.6 4-26.1 8.1-42.5.6-2.2 1.4-5.8 1.7-8 .9-5.2 3.7-6 4.7-1.3.4 1.8 1 10 1.4 18.3.7 13.8 1.4 19.7 4.2 35.9.6 3.3 1.3 9.1 1.6 13 .7 8.3 4.2 16.5 9.5 21.8 4.4 4.3 6.1 5 9.3 3.8 2.7-1 3.4-4.5 1.5-7.8-.5-.9-1.9-4-3-6.7-1.1-2.8-2.5-5.7-3-6.6s-1.2-3.4-1.6-5.5c-.3-2.2-1.1-4.4-1.6-5-.5-.7-1.1-3.6-1.5-6.5-.3-3-1.2-7.9-1.9-10.9-1.7-6.4-1.8-32-.3-39.5.6-2.8 1.4-10.9 1.7-18 .8-14.7 1.7-17 8.3-20.4 2.2-1.2 4.4-2.1 4.9-2.1 1.4 0 14-13.2 14-14.7 0-.7.9-2.9 2-5 2.5-5 3-13 1.2-21.7-2-10.1-1.9-13 .8-22.8l2.4-8.7-1.9-5.8c-1.1-3.2-2.9-7.4-4.1-9.3-4-6.6-6.4-12.9-6.4-16.8 0-4.6-.6-5.5-3.2-4.1-2.9 1.5-5 4-7.2 8.3-1.9 3.7-7.7 7.3-9.7 6-1.5-.9-1-3.2.8-4.2.9-.6 1.4-1.6 1-2.5-.4-1.1-1.5-1.4-4.4-1-4.5.6-7.9-2.2-7-5.7.8-2.9-1.8-3.7-5.3-1.7-2.6 1.6-2.9 1.6-5.1-.2l-2.4-2 2.3-2.1c2.5-2.4 2.9-4.8.7-5.6-.9-.4-2.5.6-4.1 2.5-1.4 1.7-3.5 3.1-4.7 3.1-1.1 0-5-2-8.6-4.3-8.6-5.7-11.5-7.1-18.2-9.1-7.4-2.1-27.5-2.2-30.3-.1m22.3 3.5c9.4 1.3 13.5 2.9 20.4 7.9 5.1 3.8 5.6 5.1 3.1 7.2-.9.8-2.7 3-4 5-1.2 2-3.4 4.9-4.8 6.4s-2.8 3.7-3.2 4.9c-.3 1.1-1.2 2.8-1.9 3.6-1.7 2.1-2.6 6.3-1.6 7.9 1.3 2 7.1.6 12-2.9 2.2-1.7 4.5-3 5-3s1.2-.7 1.5-1.6c.3-.8 1-1.3 1.5-.9.6.3-.4 2.6-2.2 5.1l-3.2 4.5L466 64c3.3 2.6 5.2 2.5 8.4-.5 4.6-4.3 6.3-3.4 7.1 3.7.4 3.5 1.4 7.6 2.2 9.2 1.3 2.4 1.4 5.3.9 15.5-.9 16.3-.9 15.8-.1 21.1 1 6.9 3.5 12.1 7.9 16.6 8.4 8.5 8.1 7.6 4.3 12.6-4.1 5.3-14.7 20.7-14.7 21.3 0 .3-2.9 6.4-6.4 13.7-8.2 17.2-17.2 27.9-30.9 36.8-5 3.3-10.1 6-11.3 6-2.1 0-2.2-.4-2.1-7.8 0-5.5-.5-8.7-1.7-11.1-2.2-4.2-2.4-12.9-.4-17.9 2.1-5 3.9-12.5 4.8-19.3 1-7.5 2.9-12.7 6.2-17 1.6-2.1 3.8-6.8 5-10.7l2.2-6.9 5.1.1c4.8.1 5 0 5.3-2.7.2-1.9.9-2.7 2.3-2.7 2.2 0 8.9-4.7 8.9-6.2 0-1.9-7.5-7.9-10.7-8.6-4.4-.9-4.2-2.2.7-4.8 5.1-2.7 14.7-10.1 16.5-12.7 1.9-2.7.6-4.9-4.7-7.7-5.1-2.7-13.7-2.9-23.9-.6-14.1 3.1-53.9 2.8-64.9-.6-6.1-1.9-11.4-4.1-14.2-6.1-3.9-2.6-3.8-7.6.2-12.7 1.7-2.1 3-4.1 3-4.5 0-1.2 9.4-12.9 16-19.9 6-6.3 21.2-17.6 23.7-17.6.6 0 2.4-.6 4-1.4 5.2-2.6 11.8-4.3 14.8-4 1.7.2 6.8.8 11.4 1.4m38.9 19c.3 1.5-8.7 9-10.8 9-1.7 0-1.2-.9 3.2-6.1 4.1-4.9 7-5.9 7.6-2.9m12.2 6c.8 1.5.7 2.1-.7 2.8-2.4 1.2-4.3.4-4.3-1.7 0-3.5 3.3-4.3 5-1.1m29 2.4c0 1.5 2.9 8 6.5 14.5 2 3.6 2.5 5.8 2.5 11.5-.1 4.7-.6 7.8-1.5 9-1.7 2.2-2.1 13.9-.6 17.8 1.3 3.5 2.2 16.1 1.3 17.5-.6 1-1.5 1-4.1 0-2.9-1.1-3.4-1-4.7.7-1.9 2.6-1.8 3 1.1 5.7 1.3 1.3 2.5 3.1 2.5 4 0 2.5-8.8 11.8-12.8 13.4-4.5 2-5.5 1.9-4.7-.4.4-1.3-1.1-3.3-5.7-7.5-3.4-3.2-6.9-6.9-7.8-8.4-4-6.7-5.6-20.1-3.1-26.5 1.5-3.9 1.4-11-.3-17.1-2.7-9.7-4.6-18.4-4.6-21.1 0-2.6.1-2.7 4.3-2.1 3.4.5 4.7.3 6.4-1.3 1.5-1.4 4.5-2.2 11.4-3 9.4-1.1 10.9-1.8 10.9-5.7 0-1.1.3-2.4.6-2.7.9-.9 2.4.2 2.4 1.7m-223.3 7.3c.9 2.1 2.5 5.6 3.5 7.9 2.4 5.4 2.3 5.9-1.7 12-4.1 6.1-4.6 9.7-1.4 9.2 1.2-.2 2.6-1.1 3-2.1.5-.9 1.4-2.5 1.9-3.5.6-.9 1.4-2.7 2-4 .5-1.2 1.4-2.2 1.9-2.2 2.1 0 2.2 2.3.2 6.1-2.6 5-2.7 8.5-.2 9.9 1.1.5 2.2 1 2.4 1 .6 0 7.7-11.6 7.7-12.7.1-1 5-4.7 5-3.6 0 .4-.7 2.8-1.6 5.2-2.9 8.5.5 9.8 4.3 1.5 1.3-3 3-5.3 3.6-5.1 1.6.6 1.1 5.6-.8 7.7-1.6 1.7-2.1 7-.7 7 1.5 0 4.8-4.4 7.1-9.3l2.3-4.7h6.6c5 0 7.5.5 9.7 2 1.7 1.1 3.9 2 5.1 2 1.1 0 3.4 1.1 5.2 2.3 1.7 1.3 5.1 3.2 7.4 4.1 2.4 1 5.8 2.4 7.6 3.2s5.4 1.4 8 1.4c2.6.1 7.6.7 11.2 1.5 7.5 1.7 24 1.8 35.5.4 4.4-.6 10.9-1.3 14.5-1.6s6.9-.9 7.5-1.4c1.2-1.2 5.1-1.2 7.3 0 .9.5 2.5 1.2 3.5 1.5 4.6 1.4-1.2 7.9-12 13.2-2.3 1.1-4.8 2.6-5.5 3.2-.8.6-4.7 1.2-8.8 1.4l-7.5.3-.3 3.2c-.3 2.9-.7 3.3-3.2 3.3-1.6 0-4.1.5-5.5 1.2-1.9.8-3.1.8-5.1-.1-2.2-1-3-.9-4.5.5-1.8 1.6-1.8 1.9-.3 3.5.8.9 2.6 2 4 2.3 3.3.9 3 2-1.3 4.6-3.1 1.8-4.3 2-6.8 1.2-1.6-.6-5.2-1.3-8-1.7-2.7-.4-6.6-1.4-8.5-2.2-4.8-2-23-1.9-29 .2-5.9 2.1-12.8 5.4-13.6 6.6-.8 1.4-4 1.1-5.4-.6-1.6-1.9-4.3-1.9-7.9 0-2.6 1.3-3 1.3-4.1 0-.7-.8-2.2-1.5-3.5-1.5-1.2 0-2.5-.3-2.9-.7-.4-.5-2.6-1.2-4.8-1.8-3.7-.9-4.2-1.4-5.4-5.5-.8-2.5-1.3-5.2-1.3-6 .3-3.2-.2-3.8-3.6-4.3-4.9-.8-11.5-5.6-11.5-8.4 0-2.3-3.3-4.8-5-3.8-.6.3-1 2-1 3.7 0 3.7-5 8.8-8.7 8.8-2.9 0-6.9 4-10.8 10.8-1.5 2.6-3.7 5.7-4.8 7-2.7 2.9-16 9.2-19.5 9.2-4.2 0-7.2-2.6-7.2-6.1 0-2.8.2-3 2.8-2.5 1.6.4 3.5.1 4.6-.7 1.5-1.1 1.7-1.7.7-3.5-.6-1.2-2.5-2.5-4.1-2.9l-3-.8 3.9-8c6.1-12.6 16.1-36.8 16.1-39 .1-1.1.7-2.9 1.5-3.9 1-1.3 1.5-4.3 1.5-8.7 0-7.6 1.2-9.4 3.4-5.1 1.6 3.1 4.1 4.6 5.8 3.6.5-.3 4.6-.7 9.1-.8l8.2-.1.3-3c.6-6.7 2.4-7.3 4.9-1.8M481 51c0 2-9.7 10.3-10.5 9-.3-.6.1-1.3.9-1.6.9-.3 1.6-1.1 1.6-1.6 0-1.4 5.6-6.8 7-6.8.5 0 1 .4 1 1m-25.6 64.6c2.7 1 .7 2.4-3.4 2.4-4.4 0-7-.8-7-2.1 0-1 8-1.2 10.4-.3m-6.9 10.4c0 1.1-1 1.4-4 1.1-4.7-.4-5.8-.9-4.9-2.2 1-1.6 8.9-.6 8.9 1.1m-60 .5c7.1 2.1 8.3 3.6 5.9 7.2-2.5 3.8-4.2 6.5-5 8.3-.4.8-1.2 2.2-1.9 3-1.7 2.2-4.3 11.6-5.1 18.5-.3 3.3-1 6.4-1.4 7-.4.5-1.4 3.3-2.3 6-1.8 5.8-8.5 16.5-10.3 16.5-.7 0-4.1 1.9-7.6 4.2-7.4 5-9 6-14.3 8.6-5.4 2.6-18.9 5.6-22 4.8-1.3-.3-3.3-.1-4.3.5-1.6 1-2.3.8-4.1-1-2.3-2.3-8.5-2.9-9.8-.9-.4.7-1.1 3.3-1.5 5.8-1.3 8.2-3.6 18.4-4.8 22-3 8.3-4.5 11.9-7.7 18.5-4.1 8.2-5.5 10.8-7 12.6-.6.8-1.3 2.5-1.5 3.8-.1 1.4-.9 2.6-1.5 2.9-1.8.5-1.6-5.6.2-8.8.8-1.4 1.4-3.5 1.5-4.7 0-1.2.6-3.4 1.4-5 1.8-3.7 3.6-8.9 4.6-13.3.4-1.9 1.9-5.8 3.3-8.5 1.4-2.8 3.9-9.4 5.6-14.7 2.6-8 3.2-11.8 3.6-21.5.2-6.5.5-13.6.7-15.8.3-3.7.1-4-2.5-4.3-2.3-.3-3.6.5-6.2 3.5-1.9 2.1-3.7 5.4-4.1 7.3s-2 5.1-3.6 7-5.1 6.6-7.7 10.3c-4.2 5.9-10.1 10.7-13.3 10.7-1.3 0-6.5-5.6-7.2-7.7-.4-1.1.4-3.9 1.9-6.9 1.4-2.7 2.5-5.9 2.5-7.2s.4-3.1 1-4.1c.5-1 1.4-4.6 1.9-7.9.5-3.4 1.6-7.4 2.3-8.9 1.2-2.4 1.9-2.8 5-2.5 3.3.3 3.8 0 4.4-2.2.9-3.7-.1-5.6-3.6-6.2-1.6-.4-3-.9-3-1.3 0-1 6.2-9.3 10.7-14.5 4.1-4.6 4.4-4.8 7.4-3.7 5.7 2 7.5 1.4 11-3.4 1.7-2.4 3.6-4.2 4.2-3.8 1.1.7.3 8.6-1.9 17-1.9 7.1-1.4 9.3 2 9.3 1.8 0 2.9-1 4.5-4 1.2-2.2 2.1-4.7 2.1-5.6 0-2 4.1-7.5 5.2-6.8 1.2.8 1 3.4-.6 4.9-2 2.1-3.1 10.6-1.5 11.6 2 1.2 3.9-.9 4-4.5l.2-3.1.6 3.5c.7 4.1 3.5 5.3 4.5 1.8.6-2.1.7-2.2 2-.6.7 1 1.8 1.8 2.3 1.8 2.1 0 4.2-3.7 4.5-7.9.5-6.8 2.6-6.4 3 .6.2 3.2.7 5.8 1.3 5.8 1.5 0 3.6-5.1 4.5-11.3 1.5-10.2 2.6-12 9.4-15.4 15.9-8.3 27.3-10.4 38.1-7.3m30.5 7.2c0 .7.9 1.7 2.1 2.3 1.1.7 1.8 1.4 1.4 1.8-1 1-9.9 4.2-11.7 4.2-2.2 0-3.3 1.9-2 3.2.8.8.6 2-.4 4.1-1.5 2.8-1.5 3.1.5 5 1.7 1.7 2.4 1.9 4.3.9 3.9-1.9 11.7-4.2 14.4-4.2 2.5 0 2.6.2 2.1 4.2-.3 2.4-1.1 6.5-1.7 9.3-.6 2.7-1.6 7.7-2.1 10.9-.6 3.3-2 7.6-3 9.5-2.3 4.2-2.4 9.5-.5 13.3 1.3 2.5 1.3 2.9-.3 4-4.6 3.4-4.6 8.5 0 9.5 2.7.5 2.9.9 2.9 4.9 0 3.3-.5 4.6-2.2 5.8-2.6 1.8-10 2.1-13 .5-5.5-2.9-11.8-9.8-11.8-12.7 0-1.3-.7-4-1.6-6-5.6-13.2-6.5-15.7-7.5-22.7-.5-3.3-1.3-7.3-1.9-8.8-.5-1.5-.8-3.3-.6-4s1-4.6 1.6-8.7c.7-4.1 1.9-8.5 2.6-9.7.8-1.2 1.4-2.7 1.4-3.3 0-1.4 8.6-12.7 10.5-13.7 2.3-1.3 16.5-1 16.5.4m-260 8.4c0 .7-.9 2.6-1.9 4.3-2.4 3.9-3.7 12.1-2.1 13.1.6.4 1.9 0 2.9-.9 1.6-1.5 1.9-1.5 3.1-.1.7.8 2.1 1.5 3.1 1.5 1.4 0 1.9.7 1.9 2.5s.5 2.5 1.9 2.5c1 0 2.1-.7 2.5-1.5.3-.8 1-1.5 1.6-1.5 1.5 0 1.2 2.7-.6 5.5-.9 1.3-1.3 2.9-.9 3.5 1 1.6 4.5 1.2 5.1-.8 1.2-3.8 3.4-6.7 5.1-6.7 1.4 0 1.8.8 1.8 3.5 0 2.9.4 3.6 2.2 3.8 1.7.3 2.4-.3 2.9-2.5 1.5-6 5.8-9.7 13.4-11.3 1.9-.5 6.5-1.9 10.1-3.3 6.3-2.4 7.8-2.5 28-2.6 16.1-.1 22.4.2 25.4 1.3 4.4 1.5 5.5 3.6 3 5.6-.8.7-1.5 1.8-1.5 2.5s-.7 1.8-1.5 2.5c-.9.7-1.5 2.9-1.5 5.2 0 4.7-2.4 15.7-5.6 25.6-2.9 9.1-3.5 10.1-6.5 11.5-2.1 1.1-2.5 2.1-3 8.7-.9 10.2-2.8 16.3-9 29.5-1.6 3.3-2.9 6.6-2.9 7.3s-1.3 4-2.9 7.5c-4.7 10.4-6.1 13.7-6.1 15.1 0 .8-.6 1.9-1.4 2.6-.8.6-1.6 2.1-1.8 3.2-.2 1.2-.9 2.3-1.5 2.6-1.5.4-1.8-5.4-.4-6.3.5-.3 1.3-2 1.6-3.8.7-3 1.3-4.4 5-11.6.8-1.6 1.5-3.6 1.5-4.5 0-.8.7-3.2 1.6-5.3 2-4.5 2.6-6 5.4-13.3 1.2-3 2.7-6.6 3.2-8 .6-1.4 1.4-4.1 1.9-6 .4-1.9 1.1-4.7 1.5-6.3.7-2.8-.5-5.1-3.6-6.7-2.8-1.5-4.1.5-6 9.6-1 4.9-2.3 10.5-3 12.4s-1.5 3.9-1.6 4.5c-.2.5-.8 1.7-1.3 2.5-2.2 3.4-7.1 14.8-7.1 16.3 0 .9-.4 1.8-.9 2.2-.6.3-2.1 3-3.5 6-1.4 2.9-3.1 5.7-3.6 6-.6.3-1 1.9-1 3.4 0 1.6-.7 3.4-1.5 4.1-1.3 1.1-1.5.7-1.5-2.8 0-2.3.6-4.5 1.5-5.2.8-.7 1.5-2 1.5-2.9 0-1 .7-2.6 1.5-3.7.8-1 1.5-2.8 1.5-4 0-1.1.7-2.9 1.5-4 .8-1 1.5-2.7 1.5-3.6s.7-2.9 1.5-4.5c7.1-13.8 10.5-22.5 10.5-27.2 0-6.6-1.6-8.1-8.5-8.1-3 0-6.6.5-8.2 1.1-4.9 1.9-21.8 2-26.7.2-6.7-2.5-7.6-1.7-7.6 7.1 0 7.7-.6 10.6-2.1 10.6-.5 0-.9-4.2-.9-9.4 0-7.4-.4-9.8-1.6-11.1-2.4-2.3-3.8-1.4-4.5 3.1-.3 2.1-1.1 5.2-1.8 6.7-.6 1.6-1.1 4.4-1.1 6.4 0 1.9-.6 4.7-1.4 6.1-.8 1.5-1.7 3.5-2 4.5s-1 1.5-1.6 1.2c-1.3-.8-1.3-8.5-.1-8.5.6 0 1.2-2.1 1.6-4.8.3-2.6 1.2-6.9 2-9.6 1.9-6.1 1.9-15.3 0-18.6-.8-1.4-1.4-3.5-1.5-4.6 0-3.2-3.8-11.1-5.6-11.8-2.6-1-8.1-.7-11.1.6-1.5.7-5.3 3.1-8.3 5.3-11.8 8.8-24.3 16.6-26.3 16.3-3-.5-6.1-5.1-5.3-8.2.6-2.5.7-2.5 3.5-.8 2.4 1.3 3.4 1.4 5.5.4 3.6-1.6 3.3-4.5-.9-8l-3.5-2.9 3.7-4.9c2.1-2.7 8.6-9.7 14.5-15.7 6.4-6.3 11-11.9 11.4-13.5 1-4.1 2.3-5.3 4.4-4.2 3.2 1.7 7.8 1.2 9-1 1.1-2.1 4-2.8 4-.9m177.6 5.6c-1.1 1.1-1.7-.4-.9-2.3.7-1.8.8-1.8 1.1-.1.2 1 .1 2.1-.2 2.4m-7.6.5c0 1.3-.4 2.9-.9 3.7-1.3 2-2.4-.4-1.7-3.5.8-3 2.6-3.2 2.6-.2m170 11c-.7 5.1-1.6 13.8-2 19.3-1.6 18.3-2.6 22.3-4.5 17.7-.4-.9-1-6.9-1.2-13.2-.3-7.4-1-12.3-1.9-13.7-1.7-2.6-1.8-5.9-.3-6.8.6-.4 1.4-1.4 1.7-2.4.4-.9 2.3-4 4.1-6.9 4.7-7.2 5.7-5.7 4.1 6m-114.6 29.5c.9 3.2 2.3 7.1 3.1 8.6 1.9 3.6 1.9 4.6-.1 6.8-.9 1-2.4 5-3.5 8.9-1 3.9-2.1 7.5-2.4 8.1-.4.5-1.1 3.7-1.5 7.1-.5 3.4-1.3 6.4-1.7 6.7-.5.3-1.4 1.7-2 3.1l-1.2 2.5v-2.8c-.1-1.5.3-2.7.8-2.7 1 0 .8-22.8-.4-33.7-.7-6.8-.6-7.3 2.4-12.7 1.8-3.1 3.6-5.6 4.1-5.6s1.6 2.6 2.4 5.7m-88.6 10.1c.2 1.5-.2 2.2-1.2 2.2-1.1 0-1.6-.9-1.6-2.6 0-3.1 2.3-2.8 2.8.4m177.1.4c-.1 1.8-.4 4.4-.8 5.8-.7 2.2-.9 1.9-1.6-2.2-.4-2.6-.4-5.1 0-5.7 1.3-2.1 2.5-1 2.4 2.1m-102.4.8c0 .7-.6 1.5-1.2 1.7-.8.3-1.3-.4-1.3-1.7s.5-2 1.3-1.8c.6.3 1.2 1.1 1.2 1.8m-3.2 7.8c-.3 1.2-.9 2.2-1.4 2.2s-.9 2.2-.9 4.9c0 3-.5 5.3-1.4 6.1-.8.6-1.6 2.3-1.8 3.7-.2 1.5-.9 2.8-1.5 3.1-1.8.5-1.6-6.8.2-9.2.8-1.1 1.5-3 1.5-4.2s.7-2.7 1.5-3.4 1.5-2.1 1.5-3c0-1 .3-2.6.6-3.5 1-2.5 2.5.5 1.7 3.3m-71.3 2c0 2.6-.5 5.3-1.1 5.9s-1.5 2.9-2 5c-1.5 7-3.4 13-4.6 14.4-.6.8-1.3 2.4-1.5 3.7-.4 2.8-2.4 2.5-2.1-.3.4-6.1 4.9-24.4 7.2-29.7s4.1-4.9 4.1 1m59.6-.3c.4.8-.1 2.6-.9 3.8-.8 1.3-1.7 3.4-1.9 4.7-.4 2.8-2.8 4-2.8 1.3 0-2.6 3.2-11.3 4.2-11.3.5 0 1.1.7 1.4 1.5m141.2 8.5c0 2.5-.3 5.6-.7 7-.7 2.3-.8 2.1-1.4-1.5-.9-5.2-.9-10.9 0-13.2.6-1.6.8-1.5 1.4.7.4 1.4.7 4.5.7 7m-187.1 7.7c-.3 1-.5.2-.5-1.7s.2-2.7.5-1.8c.2 1 .2 2.6 0 3.5m6.3 0c0 3-.3 4.4-1 3.7-.8-.8-.3-8.4.6-8.4.2 0 .4 2.1.4 4.7m34 .7c0 4.2-.9 6.8-2.1 6-1-.6-1.2-5.4-.3-7.8 1.1-2.8 2.4-1.7 2.4 1.8m150 11.3c0 2.3.6 5.7 1.4 7.5s2.2 5.3 3.1 7.8 2.4 5.8 3.2 7.3c1.1 2.1 1.2 3.2.5 3.9-1.3 1.3-3.9-.5-5.3-3.7-.5-1.1-1.3-2.7-1.8-3.5-1.5-2.7-3.2-8.4-3.7-12.5-.2-2.2-.7-5.9-1-8.2-.3-2.4-.2-4.8.2-5.4 1.3-2.1 3.4 2.2 3.4 6.8m-192-3.3c0 1.4-.5 2.8-1 3.1-1.3.8-2.4-2-1.6-4 .9-2.4 2.6-1.7 2.6.9m50.3 2.3c-.3.7-.9 1.3-1.4 1.3-1.1 0-1.2-2.1-.2-4.6.6-1.6.7-1.6 1.3.2.4 1 .5 2.5.3 3.1m108.7 2.6c-.1 2.9-.7 8.1-1.5 11.7s-1.4 7.9-1.5 9.6c0 1.8-.9 5.1-1.9 7.5-1.2 2.7-1.7 5.4-1.4 7.5.7 4-.3 8.4-1.8 8.4-1.4 0-.2-15 1.2-16.5.5-.5.9-3.9.9-7.5s.7-9.2 1.5-12.3c.8-3.2 1.5-7.1 1.5-8.7 0-1.5.3-3.5.6-4.4 1.1-3 2.4-.5 2.4 4.7m-307.1 4.9c0 3.1-.1 3.1-1 1-.5-1.3-.7-2.8-.3-3.3 1-1.6 1.4-.9 1.3 2.3m195.1-.5c0 1.9-.3 2.4-1 1.7-.6-.6-.8-1.8-.4-2.7.9-2.4 1.4-2.1 1.4 1m-44.3 3.7c-.5 3.5-2.3 8.8-4.3 12.8-.8 1.4-1.4 3.3-1.4 4.1s-.7 2.8-1.5 4.3c-.8 1.6-1.5 3.6-1.5 4.5 0 2.6-9.5 24.5-11.1 25.5-.5.3-.9 1.4-.9 2.4 0 1.1-1.3 4.6-2.9 7.7-1.5 3.2-3.5 7.5-4.4 9.5-1.9 4.3-4.7 5.1-4.7 1.5 0-1.3 1.4-5 3-8.2 1.7-3.2 3-6.3 3-6.9s1.3-3.8 2.9-7.1c6.1-12.6 8.9-19.1 9.6-22.2.3-1.8 1.1-3.5 1.6-3.8.5-.4.9-1.7.9-2.9 0-1.3.7-2.9 1.5-3.6s1.5-1.8 1.5-2.5.7-2.6 1.5-4.1c.8-1.6 1.5-3.6 1.5-4.5 0-.8.7-2.4 1.5-3.5.8-1 1.5-2.8 1.5-4 0-2.5.9-3.6 2.2-2.8.6.4.8 2 .5 3.8M158 251.2c0 .7-.4 1.9-.9 2.7-1.1 1.7-2.5-.3-1.7-2.4.7-1.8 2.6-2 2.6-.3m116.8 4.5c-.4 3.9-2.8 4.2-2.8.4 0-2.1.5-3.1 1.6-3.1s1.4.8 1.2 2.7m-2.8 5.5c0 .7-.4 1.9-.9 2.7-1.1 1.7-2.3-.1-1.5-2.3.7-1.9 2.4-2.1 2.4-.4m-3.8 9.3c-1.1 2.1-2.5.4-1.6-2 .4-1 1-1.3 1.6-.7q1.05 1.05 0 2.7m-59.2 10c0 2-4 9.5-5.1 9.5-1.5 0-1-4 .5-4.6.8-.3 1.6-1.8 2-3.5.6-3 2.6-4.1 2.6-1.4m3 9.3c0 1.3-1.2 2.2-2.2 1.6s-.1-2.4 1.3-2.4c.5 0 .9.4.9.8m-12 8.9c0 1-1.2 2.9-2.5 4.2-2 1.8-2.5 2-2.5.7 0-.9.5-1.6 1-1.6.6 0 1-.8 1-1.8s.3-2.2.7-2.5c1.2-1.2 2.3-.7 2.3 1m5.2 4.5c-1.5 1.5-2.4.6-1.6-1.6.5-1.2 1-1.4 1.7-.7.8.8.8 1.4-.1 2.3m-2.2 4.2c0 1.6-1.8 3.1-2.7 2.2-.8-.8.5-3.6 1.7-3.6.5 0 1 .6 1 1.4"/><path d="M513.7 72.8c-2.2 2.4-2.1 3.5.2 5.6 3 2.7 6.5 1.7 6.9-1.9.6-4.8-4-7.1-7.1-3.7M497 75.9c-1.6 3.1-1.2 4.9 1.5 6.7 2.4 1.6 2.7 1.6 4.5-.1 1.1-1 2-2.7 2-3.7 0-4.4-6-6.5-8-2.9M500 120.1c-1.4 2.6 1.1 6.9 4 6.9 3.1 0 4.5-3.6 2.5-6.6-1.9-2.9-5-3.1-6.5-.3M270.2 80.2c-1.7 1.7-1.5 6.7.3 7.4.8.4 2.6.3 4 0 2.9-.7 4.4-4.9 2.5-7.1-1.5-1.8-5.1-2-6.8-.3M259.4 118.8c-3.4 2.3-1.2 8.2 3 8.2 3.6 0 4.9-4.6 2-7.4-1.7-1.7-3.3-2-5-.8M283.7 167.1c-1.4 1.9-1.4 2.5-.1 5 1.7 3.4 4.8 3.8 6.4.9 1.1-2 .4-7-1-7-.5 0-1.5-.3-2.3-.6-.9-.3-2.1.4-3 1.7M268.5 201c-1.5 1.7-1.6 2.4-.5 5 1.4 3.3 3.9 3.9 6.4 1.4 2.2-2.2 2-5-.6-6.8-2.9-2-3.1-2-5.3.4M415 159.3c-1.7 1.8-1.8 2.3-.6 4.1 1.7 2.6 6.4 3.4 7.2 1.2 2-5.1-3.1-9.1-6.6-5.3M398.7 160.7c-1.5 1.4-.7 6.3 1.2 7.3 3.8 2 7.6-1.6 6-5.8-.6-1.6-1.6-2.2-3.7-2.2-1.6 0-3.2.3-3.5.7M406.2 208.6c-2.8 2-2.8 3.5.2 6.3 2 1.9 2.8 2.1 4.5 1.2 2.8-1.5 2.9-6.6.2-8.1-2.5-1.3-2.2-1.3-4.9.6M136.8 162.5c-1.4 3.1-.2 5.8 2.9 6.3 2.6.4 5.5-3.1 5.1-6-.2-1.8-1-2.4-3.5-2.6-2.7-.3-3.5.1-4.5 2.3"/></svg>