<svg xmlns="http://www.w3.org/2000/svg" viewBox="0 0 88.8 88.8"><path d="M44.4 0c24.5 0 44.4 19.9 44.4 44.4S68.9 88.8 44.4 88.8 0 68.9 0 44.4 19.9 0 44.4 0M16.7 69.7c2.9-9.1 11.5-15.5 21.2-15.5h13c9.8 0 18.3 6.4 21.2 15.5 13.5-14.8 13-37.7-1.2-51.9-14.7-14.7-38.5-14.7-53.1 0C3.6 32 3.1 54.9 16.6 69.7Zm49.6 5.2C65.5 67.1 58.8 61 50.9 61h-13c-7.9 0-14.6 6.1-15.4 13.9 13.1 9.4 30.7 9.4 43.8 0m-21.9-59c-9.9 0-17.9 8-17.9 17.9 0 15.9 19.3 23.9 30.6 12.7 11.3-11.3 3.2-30.6-12.7-30.6M52.2 26c-7-7-18.9-2-18.9 7.8s12 14.8 18.9 7.8c4.3-4.3 4.3-11.4 0-15.7Z" style="fill-rule:evenodd"/></svg>